<?xml version="1.0" encoding="utf-8"?>
<!-- Generator: Adobe Illustrator 19.0.0, SVG Export Plug-In . SVG Version: 6.00 Build 0)  -->
<svg version="1.1" id="Capa_1" xmlns="http://www.w3.org/2000/svg" xmlns:xlink="http://www.w3.org/1999/xlink" x="0px" y="0px"
	 viewBox="-41 164.9 512 512" style="enable-background:new -41 164.9 512 512;" xml:space="preserve">
<style type="text/css">
	.st0{opacity:0.92;fill:#2B2A2A;stroke:#001117;stroke-miterlimit:10;}
	.st1{fill:url(#SVGID_1_);}
	.st2{opacity:0.17;fill:#008B75;enable-background:new    ;}
	.st3{fill:none;stroke:#73FDFF;stroke-miterlimit:10;}
</style>
<path class="st0" d="M151,612.9c-70.7,0-128-57.3-128-128s57.3-128,128-128s128,57.3,128,128S221.7,612.9,151,612.9z"/>
<linearGradient id="SVGID_1_" gradientUnits="userSpaceOnUse" x1="18.4837" y1="617.6687" x2="467.0836" y2="169.0686" gradientTransform="matrix(1 0 0 1 0 -0.22)">
	<stop  offset="0" style="stop-color:#69E8A8"/>
	<stop  offset="0.2048" style="stop-color:#8DEEBD"/>
	<stop  offset="0.5799" style="stop-color:#CAF7E0"/>
	<stop  offset="0.8556" style="stop-color:#F0FDF7"/>
	<stop  offset="1" style="stop-color:#FFFFFF"/>
</linearGradient>
<path class="st1" d="M452.7,165.8l-194.3,74.7l2.3-29.3c1-12.8-12.8-21.5-24-15.1L60.3,298.3C-2.4,334.6-41,401.5-41,473.9
	c0,112.1,90.9,203,203,203c72.4,0,139.4-38.6,175.7-101.3l102.1-176.4c6.5-11.1-2.2-25-15.1-24l-29.3,2.3l74.7-194.3
	c0.6-1.5,0.9-3.2,0.9-4.8c0-7.5-6-13.5-13.5-13.5C455.8,164.9,454.2,165.2,452.7,165.8z M151,612.9c-70.7,0-128-57.3-128-128
	s57.3-128,128-128s128,57.3,128,128S221.7,612.9,151,612.9z"/>
<path class="st2" d="M151,452.9c0-17.7-14.3-32-32-32s-32,14.3-32,32s14.3,32,32,32S151,470.6,151,452.9z"/>
<path class="st2" d="M167,548.9c8.8,0,16-7.2,16-16s-7.2-16-16-16s-16,7.2-16,16S158.2,548.9,167,548.9z"/>
<path class="st3" d="M119.3,478.5c1.1,0.2,2.1-0.3,3.1-0.8c5-2.6,9.8-6.1,11.9-11.3c0.5-1.2,0.8-2.4,1.6-3.5c0.4-0.6,1-1.1,1.3-1.7
	c0.5-1,0.5-2.1,0.5-3.2c0-3.4-0.1-6.8-0.1-10.3"/>
<path class="st3" d="M163.3,542.9c0.9,0.5,1.8,0.9,2.6,1.4c0.5,0.3,1,0.5,1.6,0.6c2,0.2,3.3-2.3,5.3-2.4c0.1-1,0.2-2,0.6-2.9
	c0.5-0.9,1.4-1.6,2.4-1.5c-0.5-3.2,2.6-6,2.2-9.2"/>
</svg>
