<?xml version="1.0" encoding="utf-8"?>
<!-- Generator: Adobe Illustrator 19.0.0, SVG Export Plug-In . SVG Version: 6.00 Build 0)  -->
<svg version="1.1" id="Capa_1" xmlns="http://www.w3.org/2000/svg" xmlns:xlink="http://www.w3.org/1999/xlink" x="0px" y="0px"
	 viewBox="-116 88 607.2 419.3" style="enable-background:new -116 88 607.2 419.3;" xml:space="preserve">
<style type="text/css">
	.st0{fill:#E6E6E6;}
	.st1{fill:#3F3D56;}
	.st2{fill:#FFB8B8;}
	.st3{fill:#2F2E41;}
	.st4{fill:#15C1AA;}
	.st5{fill:#CCCCCC;}
	.st6{fill:#FFFFFF;}
	.st7{fill:#F2F2F2;}
</style>
<path class="st0" d="M448.4,381.5H3.3c-2.4,0-4.3-1.9-4.3-4.3V114.1c0-2.4,1.9-4.3,4.3-4.3h445.1c2.4,0,4.3,1.9,4.3,4.3v263.1
	C452.8,379.6,450.8,381.5,448.4,381.5z M3.3,111.5c-1.4,0-2.6,1.2-2.6,2.6v263.1c0,1.4,1.2,2.6,2.6,2.6h445.1c1.4,0,2.6-1.2,2.6-2.6
	V114.1c0-1.4-1.2-2.6-2.6-2.6L3.3,111.5L3.3,111.5z"/>
<path id="bbcc4262-a9b8-4c1e-bf70-e1245b5187b9-1893" class="st1" d="M182.9,130.8c-1.9,0-3.4,1.6-3.4,3.5c0,1.8,1.5,3.3,3.4,3.4
	h85.8c1.9,0,3.4-1.5,3.5-3.4c0-1.9-1.5-3.4-3.4-3.5l0,0h-0.1H182.9z"/>
<path class="st0" d="M288.3,129.8c-0.3,0.3-0.3,0.7,0,1l0,0l0,0l2.9,2.9h-7.1c-0.4,0-0.7,0.3-0.7,0.7s0.3,0.7,0.7,0.7h7.1l-2.9,2.9
	c-0.3,0.3-0.3,0.7,0,1s0.7,0.3,1,0l0,0l4-4c0.3-0.3,0.3-0.7,0-1l-4-4C288.9,129.6,288.5,129.6,288.3,129.8L288.3,129.8L288.3,129.8z
	"/>
<path class="st0" d="M163.4,129.8c0.3,0.3,0.3,0.7,0,1l0,0l-2.9,2.9h7.1c0.4,0,0.7,0.3,0.7,0.7s-0.3,0.7-0.7,0.7l0,0h-7.1l2.9,2.9
	c0.3,0.3,0.3,0.7,0,1s-0.7,0.3-1,0l0,0l-4-4c-0.3-0.3-0.3-0.7,0-1l4-4C162.7,129.6,163.2,129.6,163.4,129.8L163.4,129.8z"/>
<circle class="st2" cx="-23" cy="207.8" r="18.5"/>
<path class="st2" d="M-29.7,317.5c-0.2,0-0.5,0-0.7,0c-4.6-0.4-8-4.4-7.6-9c0-0.3,0.1-0.6,0.1-0.9c0.1-0.3,0.1-0.5,0.2-0.8
	L-65,274.4c-1.8-2.2-2-5.3-0.4-7.7v-0.1l24.6-24.3c2.8-2.8,7.3-2.7,10.1,0.1c2.7,2.8,2.7,7.3-0.1,10.1l-0.1,0.1l-17.8,17l19.5,31.3
	c0.4,0,0.7,0.1,1.1,0.1c4.5,0.9,7.4,5.3,6.5,9.8C-22.4,314.7-25.8,317.5-29.7,317.5L-29.7,317.5z"/>
<polygon class="st2" points="7.5,465.8 16.7,465.8 21.2,430.1 7.5,430.1 "/>
<path class="st3" d="M5.1,462.8h18.2l0,0c6.4,0,11.6,5.2,11.6,11.6v0.4H5.1L5.1,462.8L5.1,462.8z"/>
<polygon class="st2" points="-84.5,453 -76.5,457.8 -54.5,429.4 -66.2,422.4 "/>
<path class="st3" d="M-85,449.2l15.7,9.3l0,0c5.5,3.3,7.3,10.4,4,15.9l0,0l-0.2,0.3l-25.6-15.2L-85,449.2z"/>
<path class="st3" d="M18.9,453.2H8.5c-1.7,0-3.2-1.3-3.4-3L-5.3,352c-0.1-0.6-0.6-1.1-1.2-1c-0.4,0-0.7,0.3-0.9,0.7l-18.9,41.7
	l-33.4,54.4c-0.9,1.4-2.7,2-4.3,1.3l-13.3-5.9c-1.7-0.8-2.5-2.8-1.7-4.5c0.1-0.1,0.1-0.3,0.2-0.4l30.7-51.4l9.4-43.3
	c-3-18.8,9.7-46.7,9.9-46.9l0.1-0.1l34.9-13.7l0.2,0.2c13.8,45.2,22.2,93.9,16,166.9C22.2,451.9,20.7,453.2,18.9,453.2z"/>
<path class="st4" d="M-30.2,301.3l-0.2-0.3c-0.1-0.2-7.8-16.5-13.8-34.1c-2.3-6.8-1.7-14.4,1.8-20.7c3.5-6.4,9.6-11.1,16.7-12.8l0,0
	c12.6-3,25.5,3.6,30.3,15.7c4.7,11.9,3.2,24.6,1.8,34.5v0.2l-0.2,0.1L-30.2,301.3z"/>
<path class="st3" d="M-0.6,197.4H-30v-12.8c6.5-2.6,12.8-4.7,16.6,0C-6.3,184.5-0.6,190.3-0.6,197.4L-0.6,197.4z"/>
<path class="st3" d="M-31.6,182.3c-17.6,0-22.5,22.1-22.5,34.5c0,6.9,3.1,9.4,8.1,10.3l1.7-9.3l4.1,9.7c1.4,0,2.8,0,4.3,0l1.4-2.8
	l3.1,2.8c12.4,0,22.3,1.8,22.3-10.6C-9.1,204.3-13.4,182.3-31.6,182.3z"/>
<path class="st2" d="M46.6,207c0.1,0.2,0.2,0.4,0.3,0.6c1.9,4.2,0,9.1-4.2,11c-0.3,0.1-0.6,0.2-0.9,0.3c-0.3,0.1-0.5,0.1-0.8,0.2
	l-15.3,39.5c-1,2.7-3.7,4.3-6.5,4.1h-0.1l-33.1-10c-3.8-1.1-5.9-5.1-4.8-8.9s5.1-5.9,8.9-4.8l0,0h0.1l23.4,7.5l18.1-32.2
	c-0.2-0.3-0.3-0.7-0.4-1c-1.4-4.4,1.1-9,5.4-10.4C40.6,201.8,44.7,203.5,46.6,207L46.6,207z"/>
<path class="st5" d="M50.4,475.7h-153.6c-0.4,0-0.8-0.4-0.8-0.8s0.4-0.8,0.8-0.8H50.4c0.4,0,0.8,0.4,0.8,0.8S50.9,475.7,50.4,475.7z
	"/>
<path class="st6" d="M197.9,338.8H81.4c-3.1,0-5.5-2.5-5.5-5.5V175.1c0-3.1,2.5-5.5,5.5-5.5h116.5c3.1,0,5.5,2.5,5.5,5.5v158.1
	C203.4,336.3,201,338.8,197.9,338.8z"/>
<path class="st6" d="M134.4,210.8c0,9.4-6,17.7-14.9,20.6c-0.1,0-0.3,0.1-0.4,0.1c-0.6,0.2-1.1,0.3-1.7,0.4
	c-1.1,0.2-2.1,0.4-3.2,0.4c-0.5,0-0.9,0-1.4,0c-2.4,0-4.9-0.4-7.2-1.2c-0.1,0-0.1,0-0.2-0.1c-11.2-4.1-17.1-16.5-13-27.7
	c4.1-11.2,16.5-17.1,27.7-13C128.7,193.5,134.4,201.7,134.4,210.8L134.4,210.8z"/>
<circle class="st4" cx="112.3" cy="214.6" r="10.5"/>
<path class="st3" d="M112.9,220.2l0-0.4c-0.7,0-1.4-0.1-1.9-0.4c-0.3-0.2-0.4-0.5-0.5-0.9c0-0.2,0.1-0.4,0.2-0.6
	c0.4-0.2,0.8-0.2,1.2,0l0.3,0.1l-0.6-4.6l-0.4,0.1l0.5,3.9c-0.4-0.2-0.9-0.1-1.3,0.2c-0.3,0.2-0.4,0.5-0.4,0.9
	c0,0.5,0.3,0.9,0.6,1.2C111.4,220.2,112.2,220.2,112.9,220.2z"/>
<rect x="107.3" y="213.9" class="st3" width="2.1" height="0.4"/>
<rect x="114" y="213.9" class="st3" width="2.1" height="0.4"/>
<path class="st3" d="M115.3,229.3c0-0.1,0-0.3,0-0.4c0-1-0.8-1.9-1.9-1.9h-2.8c-1,0-1.9,0.8-1.9,1.9c0,0.1,0,0.3,0,0.4
	c-1,0.3-2,0.8-2.9,1.4c-0.2,0.1-0.3,0.2-0.5,0.4c0.1,0,0.1,0,0.2,0.1c2.3,0.8,4.7,1.2,7.2,1.2c0.5,0,0.9,0,1.4,0
	c1.1-0.1,2.1-0.2,3.2-0.4c0.6-0.1,1.2-0.3,1.7-0.4C118,230.5,116.7,229.7,115.3,229.3z"/>
<path class="st3" d="M114.9,232.1c-0.3,0-0.5,0.1-0.7,0.2c1.1-0.1,2.1-0.2,3.2-0.4L114.9,232.1z"/>
<path class="st3" d="M121.8,212.1l-18.3-6.7c-0.4-0.1-0.6-0.6-0.5-1l0.1-0.3c1.4-3.9,6.2-6.4,10.1-4.9l5.6,2.1
	c3.9,1.4,5.6,6.1,4.2,10l-0.2,0.4C122.7,212,122.2,212.2,121.8,212.1z"/>
<path class="st3" d="M122.8,212.4c-25.5,0.9-27.7-2.3-19.9-7.3l1.6-3l18.9,6.9L122.8,212.4z"/>
<ellipse transform="matrix(-0.9577 -0.2879 0.2879 -0.9577 169.8438 425.4743)" class="st3" cx="116.2" cy="200.2" rx="1.7" ry="0.9"/>
<path class="st5" d="M112.8,233c-2.5,0-5-0.4-7.3-1.2l-0.2-0.1c-11.5-4.2-17.5-16.9-13.3-28.5c4.2-11.5,16.9-17.5,28.5-13.3
	c11.5,4.2,17.5,16.9,13.3,28.5c-2.3,6.4-7.5,11.5-14,13.6c-0.1,0-0.3,0.1-0.4,0.1c-0.6,0.2-1.2,0.3-1.8,0.5
	c-1.1,0.2-2.2,0.4-3.3,0.5C113.8,233,113.3,233,112.8,233z M112.8,189.7c-11.6,0-21,9.4-21,21.1c0,8.9,5.6,16.8,13.9,19.8l0.2,0.1
	c2.2,0.8,4.6,1.2,7,1.2c0.5,0,0.9,0,1.4,0c1-0.1,2.1-0.2,3.1-0.4c0.6-0.1,1.1-0.3,1.7-0.4c0.1,0,0.3-0.1,0.4-0.1
	c11.1-3.6,17.1-15.5,13.5-26.5C130,195.6,121.9,189.7,112.8,189.7z"/>
<path class="st7" d="M83.3,277.3"/>
<path class="st5" d="M197.9,338.8H81.4c-3.1,0-5.5-2.5-5.5-5.5V175.1c0-3.1,2.5-5.5,5.5-5.5h116.5c3.1,0,5.5,2.5,5.5,5.5v158.1
	C203.4,336.3,201,338.8,197.9,338.8z M81.4,170.3c-2.7,0-4.9,2.2-4.9,4.9v158.1c0,2.7,2.2,4.9,4.9,4.9h116.5c2.7,0,4.9-2.2,4.9-4.9
	V175.1c0-2.7-2.2-4.9-4.9-4.9H81.4z"/>
<path class="st0" d="M175.4,210.7h-33c-1.4,0-2.6-1.2-2.6-2.6s1.2-2.6,2.6-2.6h33c1.4,0,2.6,1.2,2.6,2.6S176.8,210.7,175.4,210.7z"
	/>
<path class="st0" d="M186.1,219.5h-43.7c-1.4,0-2.6-1.2-2.6-2.6c0-1.4,1.2-2.6,2.6-2.6h43.7c1.4,0,2.6,1.2,2.6,2.6
	C188.7,218.3,187.6,219.5,186.1,219.5z"/>
<path class="st0" d="M175.3,253.2H93.2c-1.4,0-2.6-1.2-2.6-2.6s1.2-2.6,2.6-2.6h82.1c1.4,0,2.6,1.2,2.6,2.6S176.8,253.2,175.3,253.2
	L175.3,253.2z"/>
<path class="st0" d="M186.1,262H93.2c-1.4,0-2.6-1.2-2.6-2.6c0-1.4,1.2-2.6,2.6-2.6h92.9c1.4,0,2.6,1.2,2.6,2.6
	C188.7,260.9,187.5,262,186.1,262z"/>
<path class="st0" d="M175.3,282.3H93.2c-1.4,0-2.6-1.2-2.6-2.6c0-1.4,1.2-2.6,2.6-2.6c0,0,0,0,0,0h82.1c1.4,0,2.6,1.2,2.6,2.6
	C177.9,281.1,176.8,282.3,175.3,282.3z"/>
<path class="st0" d="M186.1,291.1H93.2c-1.4,0-2.6-1.2-2.6-2.6c0-1.4,1.2-2.6,2.6-2.6c0,0,0,0,0,0h92.9c1.4,0,2.6,1.2,2.6,2.6
	C188.7,289.9,187.5,291.1,186.1,291.1C186.1,291.1,186.1,291.1,186.1,291.1z"/>
<path class="st0" d="M175.3,311.3H93.2c-1.4,0-2.6-1.2-2.6-2.6c0-1.4,1.2-2.6,2.6-2.6c0,0,0,0,0,0h82.1c1.4,0,2.6,1.2,2.6,2.6
	C177.9,310.1,176.8,311.3,175.3,311.3z"/>
<path class="st0" d="M186.1,320.1H93.2c-1.4,0-2.6-1.2-2.6-2.6c0-1.4,1.2-2.6,2.6-2.6c0,0,0,0,0,0h92.9c1.4,0,2.6,1.2,2.6,2.6
	C188.7,318.9,187.5,320.1,186.1,320.1C186.1,320.1,186.1,320.1,186.1,320.1z"/>
<path class="st6" d="M391.6,336.1l-116.5,0c-3.1,0-5.5-2.5-5.5-5.5l0-158.1c0-3.1,2.5-5.5,5.5-5.5l116.5,0c3.1,0,5.5,2.5,5.5,5.5
	l0,158.1C397.1,333.6,394.6,336.1,391.6,336.1z"/>
<path class="st5" d="M391.6,336.1l-116.5,0c-3.1,0-5.5-2.5-5.5-5.5l0-158.1c0-3.1,2.5-5.5,5.5-5.5l116.5,0c3.1,0,5.5,2.5,5.5,5.5
	l0,158.1C397.1,333.6,394.6,336.1,391.6,336.1z M275.1,167.6c-2.7,0-4.9,2.2-4.9,4.9l0,158.1c0,2.7,2.2,4.9,4.9,4.9l116.5,0
	c2.7,0,4.9-2.2,4.9-4.9l0-158.1c0-2.7-2.2-4.9-4.9-4.9L275.1,167.6z"/>
<path class="st6" d="M328.1,207.9c0,11.9-9.7,21.6-21.6,21.6c-11.9,0-21.6-9.7-21.6-21.6c0-11.9,9.7-21.6,21.6-21.6
	C318.4,186.2,328.1,195.9,328.1,207.9z"/>
<path class="st4" d="M316.5,211.6c-0.2,13.8-20.8,13.8-21.1,0C295.7,197.7,316.2,197.7,316.5,211.6z"/>
<path class="st3" d="M305.5,215.9l0-0.4c2.7,0.4,3.3-3,0.6-1.7l0.6-4.6l0.4,0.1l-0.5,3.9C309.4,212.7,308.4,216.2,305.5,215.9z"/>
<rect x="309" y="209.5" class="st3" width="2.1" height="0.4"/>
<rect x="302.3" y="209.5" class="st3" width="2.1" height="0.4"/>
<path class="st3" d="M309.4,226.3c0.4-2.8-2.9-2.2-4.6-2.3c-1,0-1.9,0.8-1.9,1.9c0,0.1,0,0.3,0,0.4c-1.3,0.4-2.6,1.1-3.6,2
	c4.5,1.6,9.3,1.6,13.9,0.2C312.1,227.4,310.8,226.7,309.4,226.3z"/>
<path class="st3" d="M301,206.6c2-1.1,4.3-0.3,6.3,0.2c3.8,1.2,9.2-0.3,9.6-4.9c0.5-4.2-5.3-6.6-7.2-2.4l0.5-0.1
	c-6-8.9-16.5-8.6-16.4,3.7c0,0.4,0.6,0.4,0.6,0c-0.2-7.2,4.6-12.2,11.3-7.5c1.5,1.2,2.8,2.6,4,4.1c0.7,0.8,0.9-2.6,4.2-1.7
	c3.7,1.4,2.5,6.8-0.8,7.9c-4.1,2.1-8.5-2-12.6,0.1c-0.1,0.1-0.2,0.3-0.1,0.4C300.7,206.6,300.9,206.7,301,206.6L301,206.6z"/>
<path class="st5" d="M306.5,230.1c-12.3,0-22.2-10-22.2-22.2c0-12.3,10-22.2,22.2-22.2s22.2,10,22.2,22.2c0,9.6-6.2,18.1-15.3,21.1
	C311.1,229.7,308.8,230.1,306.5,230.1z M306.5,186.8c-11.6,0-21.1,9.4-21.1,21c0,11.6,9.4,21.1,21,21.1c11.6,0,21.1-9.4,21.1-21
	c0,0,0,0,0,0C327.5,196.2,318.1,186.8,306.5,186.8z"/>
<path class="st0" d="M369,208l-33,0c-1.4,0-2.6-1.2-2.6-2.6c0-1.4,1.2-2.6,2.6-2.6l33,0c1.4,0,2.6,1.2,2.6,2.6
	C371.6,206.8,370.4,208,369,208C369,208,369,208,369,208z"/>
<path class="st0" d="M379.8,216.8l-43.7,0c-1.4,0-2.6-1.2-2.6-2.6c0-1.4,1.2-2.6,2.6-2.6c0,0,0,0,0,0l43.7,0c1.4,0,2.6,1.2,2.6,2.6
	C382.4,215.6,381.2,216.8,379.8,216.8z"/>
<path class="st0" d="M369,250.5l-82.1,0c-1.4,0-2.6-1.2-2.6-2.6c0-1.4,1.2-2.6,2.6-2.6l82.1,0c1.4,0,2.6,1.2,2.6,2.6
	C371.6,249.4,370.4,250.5,369,250.5C369,250.5,369,250.5,369,250.5z"/>
<path class="st0" d="M379.7,259.3l-92.9,0c-1.4,0-2.6-1.2-2.6-2.6c0-1.4,1.2-2.6,2.6-2.6l92.9,0c1.4,0,2.6,1.2,2.6,2.6
	C382.3,258.2,381.2,259.3,379.7,259.3L379.7,259.3z"/>
<path class="st0" d="M369,279.6l-82.1,0c-1.4,0-2.6-1.2-2.6-2.6s1.2-2.6,2.6-2.6l82.1,0c1.4,0,2.6,1.2,2.6,2.6
	C371.6,278.4,370.4,279.6,369,279.6z"/>
<path class="st0" d="M379.7,288.4l-92.9,0c-1.4,0-2.6-1.2-2.6-2.6c0-1.4,1.2-2.6,2.6-2.6l92.9,0c1.4,0,2.6,1.2,2.6,2.6
	S381.2,288.4,379.7,288.4z"/>
<path class="st0" d="M369,308.6l-82.1,0c-1.4,0-2.6-1.2-2.6-2.6c0-1.4,1.2-2.6,2.6-2.6c0,0,0,0,0,0l82.1,0c1.4,0,2.6,1.2,2.6,2.6
	C371.6,307.4,370.4,308.6,369,308.6C369,308.6,369,308.6,369,308.6z"/>
<path class="st0" d="M379.7,317.4l-92.9,0c-1.4,0-2.6-1.2-2.6-2.6c0-1.4,1.2-2.6,2.6-2.6c0,0,0,0,0,0l92.9,0c1.4,0,2.6,1.2,2.6,2.6
	C382.3,316.2,381.1,317.4,379.7,317.4z"/>
<path class="st6" d="M279.3,367.1H162.8c-3.1,0-5.5-2.5-5.5-5.5V203.5c0-3.1,2.5-5.5,5.5-5.5h116.5c3.1,0,5.5,2.5,5.5,5.5v158.1
	C284.8,364.6,282.3,367.1,279.3,367.1z"/>
<path class="st6" d="M172.5,238.6c0,5.8,2.3,11.3,6.4,15.3c0.2,0.2,0.3,0.3,0.5,0.5c1.1,1,2.2,1.9,3.4,2.6c0.2,0.1,0.5,0.3,0.7,0.4
	c1.2,0.7,2.6,1.3,3.9,1.7c0.2,0.1,0.5,0.1,0.7,0.2c4.3,1.2,8.9,1.1,13.1-0.4c0.1,0,0.2-0.1,0.2-0.1c11.2-4.1,17-16.5,12.9-27.7
	c-4.1-11.2-16.5-17-27.7-12.9C178.2,221.4,172.5,229.5,172.5,238.6L172.5,238.6z"/>
<path class="st3" d="M189.6,249.2c0,1.7-0.6,3.3-1.7,4.5c-1.1,1.2-2.8,2-4.4,1.7c-1.5-0.3-2.8-1.7-2.6-3.3c0.1-1.3,1.3-2.3,2.6-2.2
	c0.1,0,0.3,0,0.4,0.1c1.5,0.4,2,2.5,0.8,3.5c-0.3,0.2-0.7-0.2-0.4-0.4c0.6-0.5,0.6-1.5,0.1-2.1c-0.1-0.2-0.3-0.3-0.5-0.4
	c-1-0.3-2,0.2-2.3,1.2c0,0.1-0.1,0.3-0.1,0.4c-0.1,1.4,1,2.4,2.2,2.6c1.4,0.3,2.8-0.5,3.7-1.4c1.1-1.1,1.7-2.7,1.7-4.2
	c0-0.2,0.1-0.3,0.3-0.3C189.4,249,189.6,249.1,189.6,249.2z"/>
<circle class="st4" cx="195.3" cy="242.5" r="10.5"/>
<path class="st3" d="M194.8,247l0-0.4c0.7,0,1.4-0.1,1.9-0.4c0.3-0.2,0.4-0.5,0.5-0.9c0-0.2-0.1-0.4-0.2-0.6c-0.4-0.2-0.8-0.2-1.2,0
	l-0.3,0.1l0.6-4.6l0.4,0.1l-0.5,3.9c0.4-0.2,0.9-0.1,1.3,0.2c0.3,0.2,0.4,0.5,0.4,0.9c0,0.5-0.3,0.9-0.6,1.2
	C196.2,246.9,195.4,246.9,194.8,247z"/>
<rect x="198.3" y="240.6" class="st3" width="2.1" height="0.4"/>
<rect x="191.6" y="240.6" class="st3" width="2.1" height="0.4"/>
<path class="st3" d="M188.1,259.4c4.3,1.2,8.9,1.1,13.1-0.4c0.1,0,0.2-0.1,0.2-0.1c-1-0.8-2.1-1.4-3.3-1.7c0.1-0.3,0.1-0.6,0-0.9
	c-0.2-0.8-1-1.3-1.8-1.3h-2.6c-0.8,0-1.6,0.5-1.8,1.3c-0.1,0.3-0.1,0.6,0,0.9c-1.1,0.3-2.1,0.8-3,1.5c-0.2,0.1-0.4,0.3-0.5,0.4
	C188.4,259.2,188.3,259.3,188.1,259.4z"/>
<path class="st1" d="M203.6,241.3c0,1.8,0.9,3.2,2,3.5c0.1,0,0.2,0,0.4,0c1.3,0,2.4-1.6,2.4-3.5c0-1-0.3-2-0.9-2.8
	c-0.2-0.2-0.4-0.4-0.7-0.6c-0.2-0.1-0.5-0.2-0.8-0.2c-0.4,0-0.7,0.1-1,0.3C204.1,238.7,203.6,239.9,203.6,241.3z"/>
<path class="st1" d="M182.5,241.3c0,1.5,0.6,2.8,1.5,3.3c0.2,0.1,0.5,0.2,0.8,0.2c0.1,0,0.1,0,0.2,0c1.2-0.1,2.2-1.7,2.2-3.5
	c0-1.5-0.6-2.8-1.5-3.3c-0.3-0.2-0.6-0.3-0.9-0.3c-0.3,0-0.5,0.1-0.8,0.2c-0.3,0.1-0.5,0.3-0.7,0.6
	C182.8,239.4,182.5,240.3,182.5,241.3z"/>
<path class="st1" d="M184.2,244.3c0.2,0,0.3-0.1,0.3-0.3c0,0,0-0.1,0-0.1c-2-6,1.2-12.5,7.2-14.6c6-2,12.5,1.2,14.6,7.2
	c0.7,1.9,0.8,4,0.4,6c0,0.2,0.1,0.3,0.2,0.3c0.2,0,0.3-0.1,0.3-0.2c1.4-6.5-2.8-13-9.3-14.3c-6.5-1.4-13,2.8-14.3,9.3
	c-0.4,2.1-0.3,4.3,0.4,6.4C184,244.3,184.1,244.3,184.2,244.3z"/>
<path class="st3" d="M200.6,235.6c0.4,0.6,0.3,1.3-0.2,1.8c-0.6,0.6-1.5,0.7-2.3,0.6c-0.9-0.1-1.8-0.5-2.7-0.3
	c-0.8,0.2-1.3,0.9-2.1,1.1c-0.7,0.2-1.6-0.1-1.8-0.8c-0.1-0.4,0.5-0.5,0.6-0.2c0.2,0.5,0.9,0.5,1.2,0.3c0.6-0.2,1.1-0.7,1.7-1
	c0.7-0.2,1.5-0.2,2.3,0c0.7,0.2,1.5,0.4,2.2,0.1c0.5-0.2,0.9-0.9,0.6-1.4C199.9,235.6,200.4,235.3,200.6,235.6L200.6,235.6z"/>
<path class="st5" d="M194.1,260.9c-2.1,0-4.2-0.3-6.2-0.9c-0.2-0.1-0.5-0.1-0.7-0.2c-1.4-0.5-2.7-1-4-1.8c-0.2-0.1-0.5-0.3-0.7-0.4
	c-1.3-0.8-2.4-1.7-3.5-2.7c-0.2-0.2-0.4-0.3-0.5-0.5c-8.7-8.7-8.7-22.7,0-31.4s22.7-8.7,31.4,0c8.7,8.7,8.7,22.7,0,31.4
	c-2.3,2.3-5.1,4.1-8.1,5.2c-0.1,0-0.2,0.1-0.2,0.1C199.1,260.4,196.6,260.9,194.1,260.9z M194.1,217.6c-11.6,0-21,9.4-21,21
	c0,5.6,2.2,11,6.2,14.9c0.2,0.2,0.3,0.3,0.5,0.5c1,1,2.1,1.8,3.3,2.5c0.2,0.1,0.5,0.3,0.7,0.4c1.2,0.7,2.5,1.2,3.8,1.7
	c0.2,0.1,0.5,0.1,0.7,0.2c4.2,1.2,8.7,1.1,12.8-0.4l0.2-0.1c10.9-4,16.6-16.1,12.6-27C210.9,223.1,203,217.6,194.1,217.6
	L194.1,217.6z"/>
<path class="st1" d="M279.3,367.1H162.8c-3.1,0-5.5-2.5-5.5-5.5V203.5c0-3.1,2.5-5.5,5.5-5.5h116.5c3.1,0,5.5,2.5,5.5,5.5v158.1
	C284.8,364.6,282.3,367.1,279.3,367.1z M162.8,198.6c-2.7,0-4.9,2.2-4.9,4.9v158.1c0,2.7,2.2,4.9,4.9,4.9h116.5
	c2.7,0,4.9-2.2,4.9-4.9V203.5c0-2.7-2.2-4.9-4.9-4.9H162.8z"/>
<path class="st4" d="M256.7,239h-33c-1.4,0-2.6-1.2-2.6-2.6c0-1.4,1.2-2.6,2.6-2.6c0,0,0,0,0,0h33c1.4,0,2.6,1.2,2.6,2.6
	C259.3,237.8,258.2,239,256.7,239C256.7,239,256.7,239,256.7,239z"/>
<path class="st4" d="M267.5,247.8h-43.7c-1.4,0-2.6-1.2-2.6-2.6c0-1.4,1.2-2.6,2.6-2.6c0,0,0,0,0,0h43.7c1.4,0,2.6,1.2,2.6,2.6
	C270.1,246.6,268.9,247.8,267.5,247.8z"/>
<path class="st5" d="M256.7,281.6h-82.1c-1.4,0-2.6-1.2-2.6-2.6c0-1.4,1.2-2.6,2.6-2.6h82.1c1.4,0,2.6,1.2,2.6,2.6
	C259.3,280.4,258.1,281.5,256.7,281.6z"/>
<path class="st5" d="M267.4,290.4h-92.9c-1.4,0-2.6-1.2-2.6-2.6c0-1.4,1.2-2.6,2.6-2.6h92.9c1.4,0,2.6,1.2,2.6,2.6
	C270,289.2,268.9,290.4,267.4,290.4z"/>
<path class="st5" d="M256.7,310.6h-82.1c-1.4,0-2.6-1.2-2.6-2.6c0-1.4,1.2-2.6,2.6-2.6h82.1c1.4,0,2.6,1.2,2.6,2.6
	C259.3,309.4,258.1,310.6,256.7,310.6z"/>
<path class="st5" d="M267.4,319.4h-92.9c-1.4,0-2.6-1.2-2.6-2.6c0-1.4,1.2-2.6,2.6-2.6h92.9c1.4,0,2.6,1.2,2.6,2.6
	C270,318.2,268.9,319.4,267.4,319.4z"/>
<path class="st5" d="M256.7,339.6h-82.1c-1.4,0-2.6-1.2-2.6-2.6c0-1.4,1.2-2.6,2.6-2.6h82.1c1.4,0,2.6,1.2,2.6,2.6
	C259.3,338.4,258.1,339.6,256.7,339.6z"/>
<path class="st5" d="M267.4,348.4h-92.9c-1.4,0-2.6-1.2-2.6-2.6c0-1.4,1.2-2.6,2.6-2.6h92.9c1.4,0,2.6,1.2,2.6,2.6
	S268.9,348.4,267.4,348.4C267.4,348.4,267.4,348.4,267.4,348.4z"/>
<path class="st4" d="M68,232.2c-14.5,0-26.3-11.8-26.3-26.3s11.8-26.3,26.3-26.3s26.3,11.8,26.3,26.3S82.5,232.2,68,232.2z"/>
<path class="st6" d="M78.3,203.3h-7.8v-7.8c0-1.4-1.2-2.6-2.6-2.6c-1.4,0-2.6,1.2-2.6,2.6l0,0v7.8h-7.8c-1.4,0-2.6,1.2-2.6,2.6
	s1.2,2.6,2.6,2.6l0,0h7.8v7.8c0,1.4,1.2,2.6,2.6,2.6c1.4,0,2.6-1.2,2.6-2.6v-7.8h7.8c1.4,0,2.6-1.2,2.6-2.6
	C80.9,204.5,79.8,203.3,78.3,203.3L78.3,203.3L78.3,203.3z"/>
</svg>
