<?xml version="1.0" encoding="utf-8"?>
<!-- Generator: Adobe Illustrator 19.0.0, SVG Export Plug-In . SVG Version: 6.00 Build 0)  -->
<svg version="1.1" id="Capa_1" xmlns="http://www.w3.org/2000/svg" xmlns:xlink="http://www.w3.org/1999/xlink" x="0px" y="0px"
	 viewBox="364.8 176.4 607.2 419.3" style="enable-background:new 364.8 176.4 607.2 419.3;" xml:space="preserve">
<style type="text/css">
	.st0{fill:#E6E6E6;}
	.st1{fill:#3F3D56;}
	.st2{fill:#F1F1F1;}
	.st3{fill:#15C1AA;}
	.st4{fill:#FFB8B8;}
	.st5{fill:#2F2E41;}
	.st6{fill:#CCCCCC;}
	.st7{fill:#FFFFFF;}
</style>
<path class="st0" d="M942.4,474.8H497.3c-2.4,0-4.3-1.9-4.3-4.3V207.4c0-2.4,1.9-4.3,4.3-4.3h445.1c2.4,0,4.3,1.9,4.3,4.3v263.1
	C946.8,472.9,944.8,474.8,942.4,474.8z M497.3,204.8c-1.4,0-2.6,1.2-2.6,2.6v263.1c0,1.4,1.2,2.6,2.6,2.6h445.1
	c1.4,0,2.6-1.2,2.6-2.6V207.4c0-1.4-1.2-2.6-2.6-2.6L497.3,204.8L497.3,204.8z"/>
<path id="bbcc4262-a9b8-4c1e-bf70-e1245b5187b9-1893" class="st1" d="M676.9,224.1c-1.9,0-3.4,1.6-3.4,3.5c0,1.8,1.5,3.3,3.4,3.4
	h85.8c1.9,0,3.4-1.5,3.5-3.4c0-1.9-1.5-3.4-3.4-3.5l0,0h-0.1H676.9z"/>
<path class="st0" d="M782.3,223.1c-0.3,0.3-0.3,0.7,0,1l0,0l0,0l2.9,2.9h-7.1c-0.4,0-0.7,0.3-0.7,0.7s0.3,0.7,0.7,0.7h7.1l-2.9,2.9
	c-0.3,0.3-0.3,0.7,0,1c0.3,0.3,0.7,0.3,1,0l0,0l4-4c0.3-0.3,0.3-0.7,0-1l-4-4C782.9,222.9,782.5,222.9,782.3,223.1L782.3,223.1
	L782.3,223.1z"/>
<path class="st0" d="M657.4,223.1c0.3,0.3,0.3,0.7,0,1l0,0l-2.9,2.9h7.1c0.4,0,0.7,0.3,0.7,0.7s-0.3,0.7-0.7,0.7l0,0h-7.1l2.9,2.9
	c0.3,0.3,0.3,0.7,0,1c-0.3,0.3-0.7,0.3-1,0l0,0l-4-4c-0.3-0.3-0.3-0.7,0-1l4-4C656.7,222.9,657.2,222.9,657.4,223.1L657.4,223.1z"/>
<rect x="529" y="259.1" class="st2" width="59.3" height="40.3"/>
<rect x="609.6" y="259.1" class="st2" width="59.3" height="40.3"/>
<rect x="690.2" y="259.1" class="st2" width="59.3" height="40.3"/>
<rect x="770.8" y="259.1" class="st2" width="59.3" height="40.3"/>
<rect x="851.4" y="259.1" class="st2" width="59.3" height="40.3"/>
<rect x="529.2" y="330" class="st2" width="59.3" height="40.3"/>
<rect x="609.8" y="330" class="st2" width="59.3" height="40.3"/>
<rect x="690.4" y="330" class="st2" width="59.3" height="40.3"/>
<rect x="771" y="330" class="st2" width="59.3" height="40.3"/>
<rect x="851.6" y="330" class="st2" width="59.3" height="40.3"/>
<rect x="529.4" y="400.8" class="st2" width="59.3" height="40.3"/>
<rect x="610" y="400.8" class="st2" width="59.3" height="40.3"/>
<rect x="690.6" y="400.8" class="st2" width="59.3" height="40.3"/>
<rect x="771.2" y="400.8" class="st2" width="59.3" height="40.3"/>
<rect x="851.8" y="400.8" class="st2" width="59.3" height="40.3"/>
<circle class="st3" cx="702.5" cy="271.8" r="7.5"/>
<circle class="st3" cx="620.7" cy="342.6" r="7.5"/>
<circle class="st3" cx="702.5" cy="413.4" r="7.5"/>
<circle class="st1" cx="784.8" cy="342.6" r="7.5"/>
<circle class="st1" cx="864.9" cy="342.6" r="7.5"/>
<circle class="st1" cx="620.7" cy="413.4" r="7.5"/>
<circle class="st4" cx="471" cy="301.1" r="18.5"/>
<path class="st4" d="M464.3,410.8c-0.2,0-0.5,0-0.7,0c-4.6-0.4-8-4.4-7.6-9c0-0.3,0.1-0.6,0.1-0.9c0.1-0.3,0.1-0.5,0.2-0.8
	L429,367.7c-1.8-2.2-2-5.3-0.4-7.7v-0.1l24.6-24.3c2.8-2.8,7.3-2.7,10.1,0.1c2.7,2.8,2.7,7.3-0.1,10.1l-0.1,0.1l-17.8,17l19.5,31.3
	c0.4,0,0.7,0.1,1.1,0.1c4.5,0.9,7.4,5.3,6.5,9.8C471.6,408,468.2,410.8,464.3,410.8L464.3,410.8z"/>
<polygon class="st4" points="501.5,559.1 510.7,559.1 515.2,523.4 501.5,523.4 "/>
<path class="st5" d="M499.1,556.1h18.2l0,0c6.4,0,11.6,5.2,11.6,11.6v0.4h-29.8V556.1z"/>
<polygon class="st4" points="409.5,546.3 417.5,551.1 439.5,522.7 427.8,515.7 "/>
<path class="st5" d="M409,542.5l15.7,9.3l0,0c5.5,3.3,7.3,10.4,4,15.9l0,0l-0.2,0.3l-25.6-15.2L409,542.5z"/>
<path class="st5" d="M512.9,546.5h-10.4c-1.7,0-3.2-1.3-3.4-3l-10.4-98.2c-0.1-0.6-0.6-1.1-1.2-1c-0.4,0-0.7,0.3-0.9,0.7l-18.9,41.7
	l-33.4,54.4c-0.9,1.4-2.7,2-4.3,1.3l-13.3-5.9c-1.7-0.8-2.5-2.8-1.7-4.5c0.1-0.1,0.1-0.3,0.2-0.4l30.7-51.4l9.4-43.3
	c-3-18.8,9.7-46.7,9.9-46.9l0.1-0.1l34.9-13.7l0.2,0.2c13.8,45.2,22.2,93.9,16,166.9C516.2,545.2,514.7,546.5,512.9,546.5z"/>
<path class="st3" d="M463.8,394.6l-0.2-0.3c-0.1-0.2-7.8-16.5-13.8-34.1c-2.3-6.8-1.7-14.4,1.8-20.7c3.5-6.4,9.6-11.1,16.7-12.8l0,0
	c12.6-3,25.5,3.6,30.3,15.7c4.7,11.9,3.2,24.6,1.8,34.5v0.2l-0.2,0.1L463.8,394.6z"/>
<path class="st5" d="M493.4,290.7H464v-12.8c6.5-2.6,12.8-4.7,16.6,0C487.7,277.8,493.4,283.6,493.4,290.7L493.4,290.7z"/>
<path class="st5" d="M462.4,275.6c-17.6,0-22.5,22.1-22.5,34.5c0,6.9,3.1,9.4,8.1,10.3l1.7-9.3l4.1,9.7c1.4,0,2.8,0,4.3,0l1.4-2.8
	l3.1,2.8c12.4,0,22.3,1.8,22.3-10.6C484.9,297.6,480.6,275.6,462.4,275.6z"/>
<path class="st4" d="M540.6,300.3c0.1,0.2,0.2,0.4,0.3,0.6c1.9,4.2,0,9.1-4.2,11c-0.3,0.1-0.6,0.2-0.9,0.3c-0.3,0.1-0.5,0.1-0.8,0.2
	l-15.3,39.5c-1,2.7-3.7,4.3-6.5,4.1h-0.1L480,346c-3.8-1.1-5.9-5.1-4.8-8.9s5.1-5.9,8.9-4.8l0,0h0.1l23.4,7.5l18.1-32.2
	c-0.2-0.3-0.3-0.7-0.4-1c-1.4-4.4,1.1-9,5.4-10.4C534.6,295.1,538.7,296.8,540.6,300.3L540.6,300.3z"/>
<path class="st6" d="M544.4,569H390.8c-0.4,0-0.8-0.4-0.8-0.8s0.4-0.8,0.8-0.8h153.6c0.4,0,0.8,0.4,0.8,0.8S544.9,569,544.4,569z"/>
<path class="st3" d="M562,325.5c-14.5,0-26.3-11.8-26.3-26.3s11.8-26.3,26.3-26.3s26.3,11.8,26.3,26.3
	C588.3,313.7,576.5,325.5,562,325.5z"/>
<path class="st7" d="M572.3,296.6h-7.8v-7.8c0-1.4-1.2-2.6-2.6-2.6c-1.4,0-2.6,1.2-2.6,2.6l0,0v7.8h-7.8c-1.4,0-2.6,1.2-2.6,2.6
	c0,1.4,1.2,2.6,2.6,2.6l0,0h7.8v7.8c0,1.4,1.2,2.6,2.6,2.6c1.4,0,2.6-1.2,2.6-2.6v-7.8h7.8c1.4,0,2.6-1.2,2.6-2.6
	C574.9,297.8,573.8,296.6,572.3,296.6L572.3,296.6L572.3,296.6z"/>
</svg>
