<?xml version="1.0" encoding="utf-8"?>
<!-- Generator: Adobe Illustrator 19.0.0, SVG Export Plug-In . SVG Version: 6.00 Build 0)  -->
<svg version="1.1" id="Capa_1" xmlns="http://www.w3.org/2000/svg" xmlns:xlink="http://www.w3.org/1999/xlink" x="0px" y="0px"
	 viewBox="144 118.7 883.3 604.2" style="enable-background:new 144 118.7 883.3 604.2;" xml:space="preserve">
<style type="text/css">
	.st0{fill:#A0616A;}
	.st1{fill:#16C1AA;}
	.st2{fill:#2F2E41;}
	.st3{fill:#3F3D56;}
	.st4{fill:#E6E6E6;}
	.st5{fill:#535461;}
	.st6{fill:#FFB8B8;}
	.st7{font-family:'MyriadPro-Regular';}
	.st8{font-size:12px;}
</style>
<path class="st0" d="M902.3,371c12.2,12.8,25.8,14.8,40.7,6.1c-6.3-10.1-7.8-21-6.1-32.6h-29.2C909,354.6,908.7,364.1,902.3,371z"/>
<polygon class="st0" points="950.5,705.1 966.1,697 972.9,610.7 972.9,565.2 936.9,564.5 947.1,610 "/>
<polygon class="st0" points="905.2,705.1 889.6,697 882.8,610.7 882.8,565.2 918.8,564.5 908.6,610 "/>
<path class="st1" d="M881.2,574.7l38-3.4l6.1-34.6l7.5,34l41.4-2.7c0.9-16.5-1.4-33.5-6.8-50.9l-91-2L881.2,574.7z"/>
<path class="st0" d="M841.7,444.6L796,409.4c-0.5-0.4-1-0.7-1.6-0.9l-6.6-2.7c-5.3-2.2-15.5-9.4-10.6-16.8c4-6,19.3,4.7,21.2,8.7
	c0.6,1.3,1.6,2.3,2.8,3l9.3,5.1c0.2,0.1,0.5,0.2,0.7,0.3l35.4,14.3c2,0.8,4.2,0.6,6.1-0.5l6.4-4.1c3.1-2,7.2-1,9.2,2.1
	c0.4,0.7,0.7,1.5,0.9,2.3l2.1,10.7c0.6,3.2-1.1,6.4-4.2,7.5l-19,7.2C846,446.4,843.5,446,841.7,444.6z"/>
<path class="st2" d="M850.2,419c12.7-3.4,11.3,14.3,21,23l19-15l-11-53.3l0,0c-6,1.7-10.8,6.1-13,11.9L850.2,419z"/>
<path class="st2" d="M873.8,518.3h95.8c-15.5-41.8-14-84.7-0.8-128.5c0.5-1.5-0.2-3.1-1.6-3.8l-27.5-14.4c-10.8,7-22.4,4.9-34.6-4.8
	l-29.9,8.1C883.3,423.9,883.5,471.8,873.8,518.3z"/>
<path class="st2" d="M897.7,721.1l-39.9,1.7c-3.6,0.2-6.7-2.4-7.3-6l0,0c-0.5-3.6,1.8-7,5.3-7.9l6.8-1.7l26.6-15.4
	c3.9,4.1,9.4,7.5,16,10.5l0.1,10.8C905.3,717.4,902,720.9,897.7,721.1z"/>
<polygon class="st3" points="1026.9,722.9 144.3,722.9 144.3,720.7 1027.3,720.7 "/>
<path class="st2" d="M957.7,720.5l39.9,1.7c3.6,0.2,6.7-2.4,7.3-6l0,0c0.5-3.6-1.8-7-5.3-7.9l-6.8-1.7l-26.6-15.4
	c-3.9,4.1-9.4,7.5-16,10.5l-0.1,10.8C950.1,716.8,953.5,720.3,957.7,720.5z"/>
<circle class="st0" cx="919.3" cy="335" r="21.7"/>
<path class="st0" d="M953.2,511.6l-7.2,14c-2.5,4.8-0.6,10.7,4.2,13.2c0.3,0.2,0.7,0.3,1,0.5l0,0c5.1,1.9,10.7-0.7,12.6-5.7
	c0.2-0.7,0.4-1.3,0.5-2l3-20.5l10.9-51.6l-0.7-25.8H956C963.4,452.6,959.7,481,953.2,511.6z"/>
<path class="st2" d="M952.6,436.2h29.2l-4.2-32c-1.2-8.8-6.7-16.5-14.8-20.3l0,0L952.6,436.2z"/>
<path class="st2" d="M942.4,323c0.9-5.9-0.8-11.8-4.6-16.4c-3.7-4.4-9.9-8-20.2-6.3c-22.5,3.7-29,22.4-26.8,27.1s9,15.6,9,15.6
	s-5-10.8,0.4-13s26.2-10.9,33.5-7c4.2,2.1,6.9,6.3,7.2,11L942.4,323z"/>
<path class="st4" d="M570.4,232.6l-8.7,4.4c-10.1-19.8-23.4-37.8-39.4-53.2c-78.8-75.7-204.5-73.3-280.2,5.5s-73.3,204.5,5.5,280.2
	c15,14.4,32.2,26.4,50.9,35.5l-4.3,8.8C190.8,463.7,147.7,339.3,197.9,236s174.6-146.4,277.9-96.3
	C516.6,159.5,549.9,192.1,570.4,232.6z"/>
<path class="st4" d="M274.8,414.8c-26.8,27.8-25.9,72.1,1.9,98.9c27.8,26.8,72.1,25.9,98.9-1.9l12-12.5l-100.8-96.9L274.8,414.8z"/>
<path class="st5" d="M280.1,395.2c-6,6.2-5.8,16.1,0.4,22l92.5,88.9c6.2,6,16.1,5.8,22-0.4c6-6.2,5.8-16.1-0.4-22l0,0l-92.5-88.9
	C295.9,388.8,286,389,280.1,395.2z"/>
<path class="st4" d="M557.4,322.7l12-12.5c26.8-27.8,25.9-72.1-1.9-98.9c-27.8-26.8-72.1-25.9-98.9,1.9l-12,12.5L557.4,322.7z"/>
<path class="st5" d="M449.2,219.3c-6,6.2-5.8,16.1,0.4,22l92.5,88.9c6.2,6,16.1,5.8,22-0.4c6-6.2,5.8-16.1-0.4-22l0,0l-92.5-88.9
	C465.1,212.9,455.2,213.1,449.2,219.3z"/>
<path class="st5" d="M488.2,424.7v-7.2c0,0,31.5-17.7,57.1,0v6.6L488.2,424.7z"/>
<path class="st5" d="M775.2,424.7v-7.2c0,0,31.5-17.7,57.1,0v6.6L775.2,424.7z"/>
<path class="st4" d="M582.8,424h-30.9c0,0-7.9-9.2-34.1-8.5s-31.5,8.5-31.5,8.5s-25.9,17.4-31.8,39.1c0,0-31.8,95.5-32.5,170.4
	s28.2,85.4,43.3,87.3c15.1,2,42-0.7,68.3-67l11.2-38.7c0,0,2-23,25.6-8.5s44.6-7.9,44.6-7.9h88.6c0,0,29.5,18.4,56.5,3.9
	c0,0,10.5-13.8,20.4,32.8c0,0,30.2,95.9,76.8,86s41.4-90,41.4-90s-6.2-122.5-31.8-165.8c0,0-24.6-45-41-46.9c0,0-35.5-6.6-49.2-0.7
	l-7.9,6.6L582.8,424z"/>
<circle class="st5" cx="511.2" cy="488.4" r="57.1"/>
<circle class="st5" cx="809.3" cy="488.4" r="57.1"/>
<path class="st4" d="M521.2,475.7l-7.6,6.7c-1.3,1.2-3.3,1.2-4.7,0l-7.6-6.7c-0.8-0.7-1.2-1.6-1.2-2.6v-18.5c0-1.9,1.6-3.5,3.5-3.5
	h15.3c1.9,0,3.5,1.6,3.5,3.5V473C522.4,474,521.9,475,521.2,475.7z"/>
<path class="st4" d="M521.2,501.1l-7.6-6.7c-1.3-1.2-3.3-1.2-4.7,0l-7.6,6.7c-0.8,0.7-1.2,1.6-1.2,2.6v18.5c0,1.9,1.6,3.5,3.5,3.5
	h15.3c1.9,0,3.5-1.6,3.5-3.5v-18.5C522.4,502.7,521.9,501.8,521.2,501.1z"/>
<path class="st4" d="M498.5,498.4l6.7-7.6c1.2-1.3,1.2-3.3,0-4.7l-6.7-7.6c-0.7-0.8-1.6-1.2-2.6-1.2h-18.5c-1.9,0-3.5,1.6-3.5,3.5
	V496c0,1.9,1.6,3.5,3.5,3.5h18.5C496.9,499.6,497.8,499.1,498.5,498.4z"/>
<path class="st4" d="M523.9,498.4l-6.7-7.6c-1.2-1.3-1.2-3.3,0-4.7l6.7-7.6c0.7-0.8,1.6-1.2,2.6-1.2h18.5c1.9,0,3.5,1.6,3.5,3.5V496
	c0,1.9-1.6,3.5-3.5,3.5h-18.5C525.6,499.6,524.6,499.1,523.9,498.4z"/>
<circle class="st5" cx="588.7" cy="550.8" r="41.4"/>
<circle class="st5" cx="731.8" cy="550.8" r="41.4"/>
<circle class="st4" cx="588.7" cy="550.8" r="27.6"/>
<path class="st5" d="M588.7,569.8c-10.5,0-19-8.5-19-19c0-10.5,8.5-19,19-19c10.5,0,19,8.5,19,19c0,0,0,0,0,0
	C607.7,561.3,599.2,569.8,588.7,569.8z M588.7,533c-9.8,0-17.7,7.9-17.7,17.7c0,9.8,7.9,17.7,17.7,17.7c9.8,0,17.7-7.9,17.7-17.7
	c0,0,0,0,0,0C606.4,541,598.5,533,588.7,533z"/>
<circle class="st4" cx="731.8" cy="550.8" r="27.6"/>
<path class="st5" d="M731.8,569.8c-10.5,0-19-8.5-19-19s8.5-19,19-19c10.5,0,19,8.5,19,19C750.9,561.3,742.3,569.8,731.8,569.8z
	 M731.8,533c-9.8,0-17.7,7.9-17.7,17.7c0,9.8,7.9,17.7,17.7,17.7c9.8,0,17.7-7.9,17.7-17.7c0,0,0,0,0,0
	C749.5,541,741.6,533,731.8,533z"/>
<circle class="st5" cx="661.6" cy="555.4" r="11.8"/>
<circle class="st5" cx="643.5" cy="515.9" r="2.6"/>
<circle class="st5" cx="653.2" cy="515.9" r="2.6"/>
<circle class="st5" cx="651.9" cy="528.2" r="2.6"/>
<circle class="st5" cx="660.9" cy="528.4" r="2.6"/>
<circle class="st5" cx="669.9" cy="528.2" r="2.6"/>
<circle class="st5" cx="648" cy="522.4" r="2.6"/>
<circle class="st5" cx="656.3" cy="522.5" r="2.6"/>
<circle class="st5" cx="664.9" cy="522.5" r="2.6"/>
<circle class="st5" cx="673.8" cy="522.4" r="2.6"/>
<circle class="st5" cx="660.9" cy="516" r="2.6"/>
<circle class="st5" cx="670.1" cy="516" r="2.6"/>
<circle class="st5" cx="677.7" cy="515.9" r="2.6"/>
<path class="st5" d="M563.4,429.6c-2.5,0-4.6,2.1-4.6,4.6V448c0,2.5,2.1,4.6,4.6,4.6h3.3c2.5,0,4.6-2.1,4.6-4.6v-13.8
	c0-2.5-2.1-4.6-4.6-4.6H563.4z"/>
<path class="st5" d="M755.1,429.6c-2.5,0-4.6,2.1-4.6,4.6V448c0,2.5,2.1,4.6,4.6,4.6h3.3c2.5,0,4.6-2.1,4.6-4.6v-13.8
	c0-2.5-2.1-4.6-4.6-4.6H755.1z"/>
<circle class="st4" cx="810" cy="453.6" r="15.8"/>
<circle class="st4" cx="776.5" cy="487.1" r="15.8"/>
<circle class="st4" cx="844.8" cy="485.1" r="15.8"/>
<circle class="st4" cx="812.6" cy="519.9" r="15.8"/>
<path class="st5" d="M593.1,420.4c-7.3,0-13.3,5.9-13.3,13.3v58.8c0,7.3,5.9,13.3,13.3,13.3h134.9c7.3,0,13.3-5.9,13.3-13.3v-58.8
	c0-7.3-5.9-13.3-13.3-13.3H593.1z"/>
<path class="st5" d="M820.7,460.8h-21.4l10.3-17.7L820.7,460.8z M801.6,459.5h16.7l-8.6-13.8L801.6,459.5z"/>
<path class="st5" d="M785.3,495h-17.7v-15.8h17.7V495z M768.9,493.6H784v-13.1h-15.1V493.6z"/>
<path class="st5" d="M844.8,495c-5.4,0-9.8-4.4-9.8-9.8s4.4-9.8,9.8-9.8s9.8,4.4,9.8,9.8C854.6,490.5,850.2,494.9,844.8,495z
	 M844.8,476.6c-4.7,0-8.5,3.8-8.5,8.5s3.8,8.5,8.5,8.5c4.7,0,8.5-3.8,8.5-8.5c0,0,0,0,0,0C853.3,480.4,849.5,476.6,844.8,476.6
	L844.8,476.6z"/>
<rect x="811.8" y="509.5" transform="matrix(-0.7071 0.7071 -0.7071 -0.7071 1754.5284 313.061)" class="st5" width="1.3" height="20.9"/>
<rect x="802.1" y="519.1" transform="matrix(-0.7226 0.6913 -0.6913 -0.7226 1759.0378 333.5301)" class="st5" width="20.9" height="1.3"/>
<path class="st2" d="M283.6,270.4c-35.9,9.9-75.1,17.3-89.2,5.8c7.7-12.8,12.1-25.5,12.5-37.9c0.1-5.7,2.4-11.1,6.4-15.1
	c5.4-5.2,12.9-7.7,20.3-6.6l9.3,1.3c0.3,0,0.6,0.1,0.9,0.1c9.2,1.7,16.2,9.1,17.5,18.3C263.3,249.9,269.9,261.5,283.6,270.4z"/>
<path class="st6" d="M318.2,398.1l13.9,2.9c4,0.8,6.5,4.7,5.7,8.6c-0.1,0.5-0.3,1-0.4,1.4l0,0c-1.6,3.7-5.9,5.4-9.6,3.8
	c-0.3-0.1-0.6-0.3-0.9-0.5l-21.3-13.1l-36.2-85.1l18.8-5.4L318.2,398.1z"/>
<polygon class="st0" points="218.9,509.8 208.3,512.8 200.3,496.3 208.5,492.1 "/>
<polygon class="st6" points="213.5,580.4 200.6,577 202.6,554.8 213.7,555.4 "/>
<path class="st2" d="M214.9,494.3l-13.7,9l-52.7-59.7c-4.3-4.9-3.8-12.3,1-16.6c0.5-0.5,1.1-0.9,1.8-1.3l65.7-39.3l10.1,28.9
	l-34.2,32.1L214.9,494.3z"/>
<path class="st2" d="M226.4,525.6c0,0-0.1,0.1-0.1,0.1c-0.9,5.1-2.4,9.8-5.9,13.2c-2.1,4.8-7.5,7.2-12.4,5.6l0,0
	c-4.7-1.5-7.6-6-7.1-10.9l2.6-22.9c6.1-1.4,10.8-4.9,13.2-11.7l6,4.1c7.2,4.9,9.1,14.6,4.2,21.8
	C226.7,525.1,226.6,525.3,226.4,525.6z"/>
<circle class="st6" cx="232.9" cy="244.4" r="21.1"/>
<path class="st6" d="M251.2,278.1l-33.3,27.6l-2.6-11.3l5.8-8.9c1.6-8.7,0.6-18.3-2.2-28.4l21.7,0
	C241.6,265.3,244.8,272.5,251.2,278.1z"/>
<path class="st1" d="M260.6,350.4l-44.9,13.7l-3.5-16c-8.4-11.3-12.1-21.6-6.6-30l-2.8-12.7c8-6.3,14.2-12.7,17.6-19.3l27.6-10.8
	l20.3,1.3l6,20.1L260.6,350.4z"/>
<path class="st1" d="M292.5,312.9c-9.6-0.1-18.9,2.8-26.8,8.2l2.7-44.6l0,0c5.7,0.8,10.5,4.4,12.7,9.7L292.5,312.9z"/>
<path class="st2" d="M214.7,560.8l-14.3-3.5l2.1-121.2l19.1-21l-4.3-26.6l-2.8-29.8l46.8-11.6c15.8,28.7,25.4,54.8,11.4,71.1
	L214.7,560.8z"/>
<path class="st2" d="M211.4,601.7c-0.1,0-0.1,0-0.2,0.1c-4.1,4.8-8.7,8.7-14.4,10.1c-5.2,3.6-12.3,2.8-16.5-1.9l0,0
	c-3.9-4.5-4.2-11.1-0.6-15.8l17.1-22.3c7.3,2.4,14.4,1.7,21.2-3.9l3.7,8c4.5,9.6,0.3,21-9.3,25.4
	C212.1,601.4,211.8,601.5,211.4,601.7z"/>
<path class="st6" d="M159.4,412.6l-12.5,10.7c-3.4,2.9-3.8,8-0.9,11.5c0.8,0.9,1.7,1.6,2.8,2.1l0,0c3.9,1.8,8.5,0.2,10.5-3.6
	l9.1-16.9l41.5-75.7l-15.6-2.9L159.4,412.6z"/>
<path class="st1" d="M212.3,342.9c-8.1-2.4-15.7-3.9-21.6-2c1.2-15.3,3.8-28.9,12-35.4l11.8,1.4L212.3,342.9z"/>
<path class="st2" d="M256.5,239.5l-45.1-2.8l0.6-9c15.8-10.6,30.8-9.7,45.1,2.8L256.5,239.5z"/>
<text transform="matrix(1 0 0 1 564.6401 423.6367)" class="st7 st8">2f2e41</text>
</svg>
