<?xml version="1.0" encoding="utf-8"?>
<!-- Generator: Adobe Illustrator 19.0.0, SVG Export Plug-In . SVG Version: 6.00 Build 0)  -->
<svg version="1.1" id="Capa_1" xmlns="http://www.w3.org/2000/svg" xmlns:xlink="http://www.w3.org/1999/xlink" x="0px" y="0px"
	 viewBox="144 118.7 883.3 604.2" style="enable-background:new 144 118.7 883.3 604.2;" xml:space="preserve">
<style type="text/css">
	.st0{fill:#A0616A;}
	.st1{fill:#16C1AA;}
	.st2{fill:#2F2E41;}
	.st3{fill:#3F3D56;}
	.st4{fill:#E6E6E6;}
	.st5{fill:#535461;}
	.st6{fill:#FFB8B8;}
</style>
<path class="st0" d="M902.3,370.9c12.2,12.8,25.8,14.8,40.7,6.1c-6.3-10.1-7.8-21-6.1-32.6h-29.2C909,354.5,908.7,364,902.3,370.9z"
	/>
<polygon class="st0" points="950.5,705 966.1,696.9 972.9,610.6 972.9,565.1 936.9,564.4 947.1,609.9 "/>
<polygon class="st0" points="905.2,705 889.6,696.9 882.8,610.6 882.8,565.1 918.8,564.4 908.6,609.9 "/>
<path class="st1" d="M881.2,574.6l38-3.4l6.1-34.6l7.5,34l41.4-2.7c0.9-16.5-1.4-33.5-6.8-50.9l-91-2L881.2,574.6z"/>
<path class="st0" d="M841.7,444.5L796,409.3c-0.5-0.4-1-0.7-1.6-0.9l-6.6-2.7c-5.3-2.2-15.5-9.4-10.6-16.8c4-6,19.3,4.7,21.2,8.7
	c0.6,1.3,1.6,2.3,2.8,3l9.3,5.1c0.2,0.1,0.5,0.2,0.7,0.3l35.4,14.3c2,0.8,4.2,0.6,6.1-0.5l6.4-4.1c3.1-2,7.2-1,9.2,2.1
	c0.4,0.7,0.7,1.5,0.9,2.3l2.1,10.7c0.6,3.2-1.1,6.4-4.2,7.5l-19,7.2C846,446.3,843.5,445.9,841.7,444.5z"/>
<path class="st2" d="M850.2,418.9c12.7-3.4,11.3,14.3,21,23l19-15l-11-53.3l0,0c-6,1.7-10.8,6.1-13,11.9L850.2,418.9z"/>
<path class="st2" d="M873.8,518.2h95.8c-15.5-41.8-14-84.7-0.8-128.5c0.5-1.5-0.2-3.1-1.6-3.8l-27.5-14.4c-10.8,7-22.4,4.9-34.6-4.8
	l-29.9,8.1C883.3,423.8,883.5,471.7,873.8,518.2z"/>
<path class="st2" d="M897.7,721l-39.9,1.7c-3.6,0.2-6.7-2.4-7.3-6l0,0c-0.5-3.6,1.8-7,5.3-7.9l6.8-1.7l26.6-15.4
	c3.9,4.1,9.4,7.5,16,10.5l0.1,10.8C905.3,717.3,902,720.8,897.7,721z"/>
<polygon class="st3" points="1026.9,722.8 144.3,722.8 144.3,720.6 1027.3,720.6 "/>
<path class="st2" d="M957.7,720.4l39.9,1.7c3.6,0.2,6.7-2.4,7.3-6l0,0c0.5-3.6-1.8-7-5.3-7.9l-6.8-1.7l-26.6-15.4
	c-3.9,4.1-9.4,7.5-16,10.5l-0.1,10.8C950.1,716.7,953.5,720.2,957.7,720.4z"/>
<circle class="st0" cx="919.3" cy="334.9" r="21.7"/>
<path class="st0" d="M953.2,511.5l-7.2,14c-2.5,4.8-0.6,10.7,4.2,13.2c0.3,0.2,0.7,0.3,1,0.5l0,0c5.1,1.9,10.7-0.7,12.6-5.7
	c0.2-0.7,0.4-1.3,0.5-2l3-20.5l10.9-51.6l-0.7-25.8H956C963.4,452.5,959.7,480.9,953.2,511.5z"/>
<path class="st2" d="M952.6,436.1h29.2l-4.2-32c-1.2-8.8-6.7-16.5-14.8-20.3l0,0L952.6,436.1z"/>
<path class="st2" d="M942.4,322.9c0.9-5.9-0.8-11.8-4.6-16.4c-3.7-4.4-9.9-8-20.2-6.3c-22.5,3.7-29,22.4-26.8,27.1
	c2.2,4.7,9,15.6,9,15.6s-5-10.8,0.4-13s26.2-10.9,33.5-7c4.2,2.1,6.9,6.3,7.2,11L942.4,322.9z"/>
<path class="st4" d="M570.4,232.5l-8.7,4.4c-10.1-19.8-23.4-37.8-39.4-53.2c-78.8-75.7-204.5-73.3-280.2,5.5s-73.3,204.5,5.5,280.2
	c15,14.4,32.2,26.4,50.9,35.5l-4.3,8.8c-103.4-50.1-146.5-174.5-96.3-277.8s174.6-146.4,277.9-96.3
	C516.6,159.4,549.9,192,570.4,232.5z"/>
<path class="st4" d="M274.8,414.7c-26.8,27.8-25.9,72.1,1.9,98.9c27.8,26.8,72.1,25.9,98.9-1.9l12-12.5l-100.8-96.9L274.8,414.7z"/>
<path class="st5" d="M280.1,395.1c-6,6.2-5.8,16.1,0.4,22L373,506c6.2,6,16.1,5.8,22-0.4c6-6.2,5.8-16.1-0.4-22l0,0l-92.5-88.9
	C295.9,388.7,286,388.9,280.1,395.1z"/>
<path class="st4" d="M557.4,322.6l12-12.5c26.8-27.8,25.9-72.1-1.9-98.9c-27.8-26.8-72.1-25.9-98.9,1.9l-12,12.5L557.4,322.6z"/>
<path class="st5" d="M449.2,219.2c-6,6.2-5.8,16.1,0.4,22l92.5,88.9c6.2,6,16.1,5.8,22-0.4c6-6.2,5.8-16.1-0.4-22l0,0l-92.5-88.9
	C465.1,212.8,455.2,213,449.2,219.2z"/>
<path class="st5" d="M488.2,424.6v-7.2c0,0,31.5-17.7,57.1,0v6.6L488.2,424.6z"/>
<path class="st5" d="M775.2,424.6v-7.2c0,0,31.5-17.7,57.1,0v6.6L775.2,424.6z"/>
<path class="st4" d="M582.8,423.9h-30.9c0,0-7.9-9.2-34.1-8.5c-26.2,0.7-31.5,8.5-31.5,8.5s-25.9,17.4-31.8,39.1
	c0,0-31.8,95.5-32.5,170.4s28.2,85.4,43.3,87.3c15.1,2,42-0.7,68.3-67l11.2-38.7c0,0,2-23,25.6-8.5s44.6-7.9,44.6-7.9h88.6
	c0,0,29.5,18.4,56.5,3.9c0,0,10.5-13.8,20.4,32.8c0,0,30.2,95.9,76.8,86s41.4-90,41.4-90s-6.2-122.5-31.8-165.8c0,0-24.6-45-41-46.9
	c0,0-35.5-6.6-49.2-0.7l-7.9,6.6L582.8,423.9z"/>
<circle class="st5" cx="511.2" cy="488.3" r="57.1"/>
<circle class="st5" cx="809.3" cy="488.3" r="57.1"/>
<path class="st4" d="M521.2,475.6l-7.6,6.7c-1.3,1.2-3.3,1.2-4.7,0l-7.6-6.7c-0.8-0.7-1.2-1.6-1.2-2.6v-18.5c0-1.9,1.6-3.5,3.5-3.5
	h15.3c1.9,0,3.5,1.6,3.5,3.5v18.4C522.4,473.9,521.9,474.9,521.2,475.6z"/>
<path class="st4" d="M521.2,501l-7.6-6.7c-1.3-1.2-3.3-1.2-4.7,0l-7.6,6.7c-0.8,0.7-1.2,1.6-1.2,2.6v18.5c0,1.9,1.6,3.5,3.5,3.5
	h15.3c1.9,0,3.5-1.6,3.5-3.5v-18.5C522.4,502.6,521.9,501.7,521.2,501z"/>
<path class="st4" d="M498.5,498.3l6.7-7.6c1.2-1.3,1.2-3.3,0-4.7l-6.7-7.6c-0.7-0.8-1.6-1.2-2.6-1.2h-18.5c-1.9,0-3.5,1.6-3.5,3.5
	v15.2c0,1.9,1.6,3.5,3.5,3.5h18.5C496.9,499.5,497.8,499,498.5,498.3z"/>
<path class="st4" d="M523.9,498.3l-6.7-7.6c-1.2-1.3-1.2-3.3,0-4.7l6.7-7.6c0.7-0.8,1.6-1.2,2.6-1.2H545c1.9,0,3.5,1.6,3.5,3.5v15.2
	c0,1.9-1.6,3.5-3.5,3.5h-18.5C525.6,499.5,524.6,499,523.9,498.3z"/>
<circle class="st5" cx="588.7" cy="550.7" r="41.4"/>
<circle class="st5" cx="731.8" cy="550.7" r="41.4"/>
<circle class="st4" cx="588.7" cy="550.7" r="27.6"/>
<path class="st5" d="M588.7,569.7c-10.5,0-19-8.5-19-19s8.5-19,19-19s19,8.5,19,19l0,0C607.7,561.2,599.2,569.7,588.7,569.7z
	 M588.7,532.9c-9.8,0-17.7,7.9-17.7,17.7s7.9,17.7,17.7,17.7c9.8,0,17.7-7.9,17.7-17.7l0,0C606.4,540.9,598.5,532.9,588.7,532.9z"/>
<circle class="st4" cx="731.8" cy="550.7" r="27.6"/>
<path class="st5" d="M731.8,569.7c-10.5,0-19-8.5-19-19s8.5-19,19-19s19,8.5,19,19C750.9,561.2,742.3,569.7,731.8,569.7z
	 M731.8,532.9c-9.8,0-17.7,7.9-17.7,17.7s7.9,17.7,17.7,17.7c9.8,0,17.7-7.9,17.7-17.7l0,0C749.5,540.9,741.6,532.9,731.8,532.9z"/>
<circle class="st5" cx="661.6" cy="555.3" r="11.8"/>
<circle class="st5" cx="643.5" cy="515.8" r="2.6"/>
<circle class="st5" cx="653.2" cy="515.8" r="2.6"/>
<circle class="st5" cx="651.9" cy="528.1" r="2.6"/>
<circle class="st5" cx="660.9" cy="528.3" r="2.6"/>
<circle class="st5" cx="669.9" cy="528.1" r="2.6"/>
<circle class="st5" cx="648" cy="522.3" r="2.6"/>
<circle class="st5" cx="656.3" cy="522.4" r="2.6"/>
<circle class="st5" cx="664.9" cy="522.4" r="2.6"/>
<circle class="st5" cx="673.8" cy="522.3" r="2.6"/>
<circle class="st5" cx="660.9" cy="515.9" r="2.6"/>
<circle class="st5" cx="670.1" cy="515.9" r="2.6"/>
<circle class="st5" cx="677.7" cy="515.8" r="2.6"/>
<path class="st5" d="M563.4,429.5c-2.5,0-4.6,2.1-4.6,4.6v13.8c0,2.5,2.1,4.6,4.6,4.6h3.3c2.5,0,4.6-2.1,4.6-4.6v-13.8
	c0-2.5-2.1-4.6-4.6-4.6H563.4z"/>
<path class="st5" d="M755.1,429.5c-2.5,0-4.6,2.1-4.6,4.6v13.8c0,2.5,2.1,4.6,4.6,4.6h3.3c2.5,0,4.6-2.1,4.6-4.6v-13.8
	c0-2.5-2.1-4.6-4.6-4.6H755.1z"/>
<circle class="st4" cx="810" cy="453.5" r="15.8"/>
<circle class="st4" cx="776.5" cy="487" r="15.8"/>
<circle class="st4" cx="844.8" cy="485" r="15.8"/>
<circle class="st4" cx="812.6" cy="519.8" r="15.8"/>
<path class="st5" d="M593.1,420.3c-7.3,0-13.3,5.9-13.3,13.3v58.8c0,7.3,5.9,13.3,13.3,13.3H728c7.3,0,13.3-5.9,13.3-13.3v-58.8
	c0-7.3-5.9-13.3-13.3-13.3H593.1z"/>
<path class="st5" d="M820.7,460.7h-21.4l10.3-17.7L820.7,460.7z M801.6,459.4h16.7l-8.6-13.8L801.6,459.4z"/>
<path class="st5" d="M785.3,494.9h-17.7v-15.8h17.7V494.9z M768.9,493.5H784v-13.1h-15.1V493.5z"/>
<path class="st5" d="M844.8,494.9c-5.4,0-9.8-4.4-9.8-9.8s4.4-9.8,9.8-9.8c5.4,0,9.8,4.4,9.8,9.8
	C854.6,490.4,850.2,494.8,844.8,494.9z M844.8,476.5c-4.7,0-8.5,3.8-8.5,8.5s3.8,8.5,8.5,8.5c4.7,0,8.5-3.8,8.5-8.5l0,0
	C853.3,480.3,849.5,476.5,844.8,476.5L844.8,476.5z"/>
<rect x="811.7" y="509.4" transform="matrix(0.7071 -0.7071 0.7071 0.7071 -129.6362 726.6758)" class="st5" width="1.3" height="20.9"/>
<rect x="802.1" y="519" transform="matrix(0.7226 -0.6913 0.6913 0.7226 -133.7814 705.8546)" class="st5" width="20.9" height="1.3"/>
<path class="st2" d="M283.6,270.3c-35.9,9.9-75.1,17.3-89.2,5.8c7.7-12.8,12.1-25.5,12.5-37.9c0.1-5.7,2.4-11.1,6.4-15.1
	c5.4-5.2,12.9-7.7,20.3-6.6l9.3,1.3c0.3,0,0.6,0.1,0.9,0.1c9.2,1.7,16.2,9.1,17.5,18.3C263.3,249.8,269.9,261.4,283.6,270.3z"/>
<path class="st6" d="M318.2,398l13.9,2.9c4,0.8,6.5,4.7,5.7,8.6c-0.1,0.5-0.3,1-0.4,1.4l0,0c-1.6,3.7-5.9,5.4-9.6,3.8
	c-0.3-0.1-0.6-0.3-0.9-0.5l-21.3-13.1L269.4,316l18.8-5.4L318.2,398z"/>
<polygon class="st0" points="218.9,509.7 208.3,512.7 200.3,496.2 208.5,492 "/>
<polygon class="st6" points="213.5,580.3 200.6,576.9 202.6,554.7 213.7,555.3 "/>
<path class="st2" d="M214.9,494.2l-13.7,9l-52.7-59.7c-4.3-4.9-3.8-12.3,1-16.6c0.5-0.5,1.1-0.9,1.8-1.3l65.7-39.3l10.1,28.9
	l-34.2,32.1L214.9,494.2z"/>
<path class="st2" d="M226.4,525.5l-0.1,0.1c-0.9,5.1-2.4,9.8-5.9,13.2c-2.1,4.8-7.5,7.2-12.4,5.6l0,0c-4.7-1.5-7.6-6-7.1-10.9
	l2.6-22.9c6.1-1.4,10.8-4.9,13.2-11.7l6,4.1c7.2,4.9,9.1,14.6,4.2,21.8C226.7,525,226.6,525.2,226.4,525.5z"/>
<circle class="st6" cx="232.9" cy="244.3" r="21.1"/>
<path class="st6" d="M251.2,278l-33.3,27.6l-2.6-11.3l5.8-8.9c1.6-8.7,0.6-18.3-2.2-28.4h21.7C241.6,265.2,244.8,272.4,251.2,278z"
	/>
<path class="st1" d="M260.6,350.3L215.7,364l-3.5-16c-8.4-11.3-12.1-21.6-6.6-30l-2.8-12.7c8-6.3,14.2-12.7,17.6-19.3l27.6-10.8
	l20.3,1.3l6,20.1L260.6,350.3z"/>
<path class="st1" d="M292.5,312.8c-9.6-0.1-18.9,2.8-26.8,8.2l2.7-44.6l0,0c5.7,0.8,10.5,4.4,12.7,9.7L292.5,312.8z"/>
<path class="st2" d="M214.7,560.7l-14.3-3.5l2.1-121.2l19.1-21l-4.3-26.6l-2.8-29.8l46.8-11.6c15.8,28.7,25.4,54.8,11.4,71.1
	L214.7,560.7z"/>
<path class="st2" d="M211.4,601.6c-0.1,0-0.1,0-0.2,0.1c-4.1,4.8-8.7,8.7-14.4,10.1c-5.2,3.6-12.3,2.8-16.5-1.9l0,0
	c-3.9-4.5-4.2-11.1-0.6-15.8l17.1-22.3c7.3,2.4,14.4,1.7,21.2-3.9l3.7,8c4.5,9.6,0.3,21-9.3,25.4
	C212.1,601.3,211.8,601.4,211.4,601.6z"/>
<path class="st6" d="M159.4,412.5l-12.5,10.7c-3.4,2.9-3.8,8-0.9,11.5c0.8,0.9,1.7,1.6,2.8,2.1l0,0c3.9,1.8,8.5,0.2,10.5-3.6
	l9.1-16.9l41.5-75.7l-15.6-2.9L159.4,412.5z"/>
<path class="st1" d="M212.3,342.8c-8.1-2.4-15.7-3.9-21.6-2c1.2-15.3,3.8-28.9,12-35.4l11.8,1.4L212.3,342.8z"/>
<path class="st2" d="M256.5,239.4l-45.1-2.8l0.6-9c15.8-10.6,30.8-9.7,45.1,2.8L256.5,239.4z"/>
</svg>
