<?xml version="1.0" encoding="utf-8"?>
<!-- Generator: Adobe Illustrator 19.0.0, SVG Export Plug-In . SVG Version: 6.00 Build 0)  -->
<svg version="1.1" id="Capa_1" xmlns="http://www.w3.org/2000/svg" xmlns:xlink="http://www.w3.org/1999/xlink" x="0px" y="0px"
	 viewBox="135 127.9 866.6 586" style="enable-background:new 135 127.9 866.6 586;" xml:space="preserve">
<style type="text/css">
	.st0{fill:#F2F2F2;}
	.st1{fill:#FFFFFF;}
	.st2{fill:#3F3D56;}
	.st3{fill:#F0F0F0;}
	.st4{fill:#2F2E41;}
	.st5{fill:#15C1AA;}
	.st6{fill:#9E616A;}
	.st7{fill:#FFB8B8;}
	.st8{fill:#E4E4E4;}
</style>
<path class="st0" d="M560.8,522.5c-1.1,0.6-2.2,1.2-3.2,1.9c-12.1,27.2-19.5,56.2-22,85.9c-0.3,3.4-0.5,6.9-0.7,10.3
	c-1.1,25.7,1.6,51.4,8.1,76.3c0.3,1.3,0.7,2.6,1.1,3.9c0.3,0.9,0.5,1.9,0.8,2.8c0.3,0.5,0.6,1,1,1.4c0,0,0,0.1,0.1,0.1
	c0.1,0.2,0.3,0.4,0.4,0.6c0.6,0.8,1.1,1.6,1.7,2.4l-0.5,0l-1.2,0l0,0c0.4,0,0.8,0,1.3,0c0.2,0,0.3,0,0.5,0c0.1,0,0.3,0,0.4,0
	c17.9,0.2,36.2,0.1,52.8-6.6c17.3-7,32.4-23,32.5-41.6c0-2.4-0.3-4.9-0.8-7.3c-0.2-1-0.5-2-0.8-3c-5.6-18.7-25.2-29.3-43.9-23.7
	c-6.2,1.9-11.8,5.4-16.1,10.2c5.6-19,27-27.9,46.1-33.1c19.1-5.2,40.6-10.6,51-27.5c5.8-9.4,6.3-20.6,3.2-31.1
	c-0.1-0.3-0.2-0.6-0.3-1c-3.9-12.4-12.4-22.8-23.7-29.1c-21.2-11.5-47.5-8.8-70-0.2C572.3,516.6,566.4,519.3,560.8,522.5z"/>
<path class="st1" d="M617.7,649.2c-17,0.9-33.3,7.2-46.5,18.1c-11.2,9.4-19.7,21.5-24.5,35.3c-0.3,0.8-0.5,1.6-0.8,2.4
	c-0.4-0.8-0.8-1.7-1.2-2.5c-0.2-0.5-0.5-1.1-0.7-1.6c0.3,0.9,0.5,1.9,0.8,2.8c0.3,0.5,0.6,1,1,1.4c0,0,0,0.1,0.1,0.1
	c0.1,0.2,0.3,0.4,0.4,0.6c0.6,0.8,1.1,1.6,1.7,2.4l-0.5,0l-1.2,0l0,0c0.4,0,0.8,0,1.3,0c0.2,0,0.3,0,0.5,0c0.1-0.2,0.1-0.5,0.2-0.7
	c10.6-36.8,46.7-60.2,84.6-54.8c-0.2-1-0.5-2-0.8-3C627.3,649.1,622.5,648.9,617.7,649.2z"/>
<path class="st1" d="M564.2,576c-7,4.8-13.3,10.7-18.6,17.3c-2.8,3.5-5.2,7.3-7.3,11.3c-1,1.9-1.9,3.8-2.7,5.7
	c-0.3,3.4-0.5,6.9-0.7,10.3c0.7-2.6,1.6-5.1,2.6-7.6c0.5-1.4,1.1-2.7,1.7-4c6.8-14.7,18.6-26,32.2-34.5c14.6-9,31-15.6,47.5-20.3
	c16.9-4.8,34.3-7.6,51.9-8.2c0.8,0,1.5-0.7,1.5-1.5c0-0.3-0.1-0.7-0.3-1c-0.2-0.3-0.6-0.4-0.9-0.3c-2.2,0.1-4.3,0.2-6.5,0.3
	c-18,1.1-35.8,4.5-53,10C595,558.8,578.5,565.9,564.2,576z"/>
<circle class="st0" cx="656.6" cy="490.9" r="6"/>
<path class="st2" d="M526.9,713.8H167.2c-17.8,0-32.1-14.4-32.2-32.2V160c0-17.8,14.4-32.1,32.2-32.2h359.7
	c17.8,0,32.1,14.4,32.2,32.2v521.6C559,699.4,544.6,713.8,526.9,713.8z"/>
<path class="st1" d="M527.5,693.3h-361c-5.5,0-9.9-4.4-9.9-9.9V158.3c0-5.5,4.4-9.9,9.9-9.9h361c5.5,0,9.9,4.4,9.9,9.9v525.1
	C537.4,688.9,533,693.3,527.5,693.3z"/>
<circle class="st1" cx="345.6" cy="137.7" r="2.7"/>
<path class="st3" d="M509.9,536.1H184.1c-2.7,0-4.8-2.2-4.8-4.8V240.4c0-2.7,2.2-4.8,4.8-4.8h325.7c2.7,0,4.8,2.2,4.8,4.8v290.9
	C514.7,534,512.5,536.1,509.9,536.1z"/>
<path class="st1" d="M483.2,443.6H211.5c-2.7,0-4.8-2.2-4.8-4.8V271.5c0-2.7,2.2-4.8,4.8-4.8h271.7c2.7,0,4.8,2.2,4.8,4.8v167.3
	C488,441.5,485.9,443.6,483.2,443.6z"/>
<path class="st1" d="M420.7,510.2H216.3c-5.3,0-9.6-4.3-9.6-9.6c0-5.3,4.3-9.6,9.6-9.6c0,0,0,0,0,0h204.3c5.3,0,9.6,4.3,9.6,9.6
	C430.3,505.9,426,510.2,420.7,510.2z"/>
<path class="st1" d="M354.8,477.3H216.3c-5.3,0-9.6-4.3-9.6-9.6c0-5.3,4.3-9.6,9.6-9.6h138.4c5.3,0,9.6,4.3,9.6,9.6
	C364.4,473,360.1,477.3,354.8,477.3z"/>
<path class="st4" d="M368.9,444.3c0.3-0.1,0.7-0.2,1-0.3c27.3-8.8,45.4-34.7,44.3-63.3c-0.2-6.7-1.6-13.3-3.9-19.6
	c-12.2-33.1-48.9-50.1-82-37.9c-33.1,12.2-50.1,48.9-37.9,82c6.7,18.1,21.2,32.2,39.5,38.4c0.3,0.1,0.7,0.2,1,0.3h18.3L368.9,444.3z
	"/>
<polygon class="st4" points="332,430.7 329.9,443.6 329.9,444 310.3,444 311.8,434 312.9,427.3 "/>
<polygon class="st4" points="368.9,444.3 369,444 370.1,437.7 351,434.2 349.3,444 "/>
<circle class="st1" cx="354.9" cy="367.5" r="21.8"/>
<circle class="st2" cx="363.9" cy="359.7" r="7.3"/>
<path class="st5" d="M300,313.6c-1-23.7,19.4-43.7,45.5-44.7c26.1-1.1,48,17.3,49,40.9s-17.2,29-43.3,30.1S301,337.3,300,313.6z"/>
<ellipse transform="matrix(-0.2234 -0.9747 0.9747 -0.2234 138.786 853.5669)" class="st4" cx="409.4" cy="371.5" rx="10" ry="31.9"/>
<ellipse transform="matrix(-0.2234 -0.9747 0.9747 -0.2234 -34.955 756.8514)" class="st4" cx="284" cy="392.4" rx="10" ry="31.9"/>
<path class="st1" d="M332.9,408.3c-1.4,7.9,3.8,15.5,11.7,16.9c7.9,1.4,15.5-3.8,16.9-11.7l0,0c1.4-7.9-4.7-10.7-12.6-12.1
	S334.3,400.4,332.9,408.3z"/>
<path class="st5" d="M477.1,492.5c-2.4-2.5-6.4-2.5-8.9,0s-2.5,6.4,0,8.9c0,0,0,0,0,0l0,0l8.9,8.9l8.9-8.9c2.4-2.5,2.4-6.4,0-8.9
	C483.5,490,479.6,490,477.1,492.5L477.1,492.5z"/>
<path class="st5" d="M645.1,266.7c-2.4-2.5-6.4-2.5-8.9,0c-2.4,2.4-2.5,6.4,0,8.9l0,0l8.9,8.9l8.9-8.9c2.4-2.5,2.4-6.4,0-8.9
	C651.5,264.3,647.6,264.3,645.1,266.7L645.1,266.7z"/>
<polygon class="st6" points="853.7,703 842.5,703 837.2,659.8 853.7,659.8 "/>
<path class="st4" d="M856.5,713.8l-36.1,0v-0.5c0-7.8,6.3-14.1,14.1-14.1h0l22.1,0L856.5,713.8z"/>
<polygon class="st6" points="750.5,703 739.3,703 733.9,659.8 750.5,659.8 "/>
<path class="st4" d="M753.3,713.8l-36.1,0v-0.5c0-7.8,6.3-14.1,14.1-14.1h0l22.1,0L753.3,713.8z"/>
<polygon class="st7" points="764,355.9 756.7,402.5 826.1,403.4 817,358.7 "/>
<path class="st4" d="M758.7,391.2L736.6,450l-2.7,244h18.7l44.8-196l41.1,190.9h18.3l-12.8-214.7c0,0,3.8-43.1-15.5-68.5l-4.7-13.6
	L758.7,391.2z"/>
<path class="st7" d="M853.5,437.1c-7.3-2-11.6-9.5-9.6-16.8c0.2-0.8,0.5-1.5,0.8-2.3l-29.5-96.3l21.7-4.3l27,94.4
	c6.6,3.7,9,12.1,5.3,18.7C866.2,436.1,859.7,438.8,853.5,437.1L853.5,437.1z"/>
<path class="st8" d="M814.4,381.7l-47.9-0.9c-2.8-0.1-5.2-2-5.9-4.7c-2.6-10.2-8.2-36.6-5.2-63c2.4-21.1,21.5-36.2,42.6-33.8
	c0.4,0,0.7,0.1,1.1,0.1c21,3,35.6,22.5,32.6,43.5c-0.2,1.5-0.5,2.9-0.9,4.3c-6,22.9-9.4,39.2-10.1,48.6c-0.2,2.8-2.3,5.1-5,5.7l0,0
	c-0.4,0.1-0.8,0.1-1.2,0.1C814.5,381.7,814.5,381.7,814.4,381.7z"/>
<path class="st7" d="M680.9,297.1c0.3,0.6,0.5,1.3,0.7,2l59.9,20.4l11.6-10.1l17.5,15.5l-18.8,19.9c-3.1,3.3-8,4.2-12.1,2.1
	L675.7,314c-6.3,3.9-14.6,1.9-18.4-4.4s-1.9-14.6,4.4-18.4c6.3-3.9,14.6-1.9,18.4,4.4C680.4,296.1,680.6,296.6,680.9,297.1z"/>
<path class="st8" d="M741.6,316.2c0-1.7,0.7-3.3,2-4.3l21.9-18.7c5.8-6.6,15.9-7.3,22.5-1.5c6.6,5.8,7.3,15.8,1.6,22.4L774,338.4
	c-1.7,2.7-5.3,3.4-7.9,1.7c-0.2-0.2-0.5-0.3-0.7-0.5l-21.8-19.1C742.3,319.4,741.6,317.9,741.6,316.2z"/>
<path class="st8" d="M813.9,346.1c-1.5-0.8-2.5-2.2-2.9-3.8l-6.5-28.1c-3.2-8.2,0.8-17.5,9-20.7c8.2-3.2,17.4,0.8,20.6,8.9
	l14.4,25.1c1.6,2.7,0.6,6.3-2.1,7.8c-0.2,0.1-0.5,0.3-0.8,0.4l-27,10.6C817.1,346.9,815.4,346.8,813.9,346.1z"/>
<circle class="st7" cx="798.7" cy="243.7" r="29.4"/>
<path class="st4" d="M763.1,227.2h46.6v-20.3c-10.2-4.1-20.2-7.5-26.3,0C772.2,206.8,763.1,215.9,763.1,227.2L763.1,227.2z"/>
<path class="st4" d="M812.3,203.2c27.9,0,35.7,34.9,35.7,54.6c0,11-5,14.9-12.8,16.3l-2.8-14.7l-6.5,15.3c-2.2,0-4.5,0-6.9-0.1
	l-2.2-4.5l-4.9,4.4c-19.6,0-35.4,2.9-35.4-16.7C776.6,238.2,783.4,203.2,812.3,203.2z"/>
<path class="st2" d="M1000.6,713.9h-548c-0.6,0-1-0.4-1-1s0.4-1,1-1h548c0.6,0,1,0.4,1,1S1001.2,713.9,1000.6,713.9z"/>
</svg>
