<?xml version="1.0" encoding="utf-8"?>
<!-- Generator: Adobe Illustrator 19.0.0, SVG Export Plug-In . SVG Version: 6.00 Build 0)  -->
<svg version="1.1" id="Capa_1" xmlns="http://www.w3.org/2000/svg" xmlns:xlink="http://www.w3.org/1999/xlink" x="0px" y="0px"
	 viewBox="126 113.7 848.3 615.2" style="enable-background:new 126 113.7 848.3 615.2;" xml:space="preserve">
<style type="text/css">
	.st0{fill:#F2F2F2;}
	.st1{fill:#FFFFFF;}
	.st2{fill:#3F3D56;}
	.st3{fill:#16C1AA;}
	.st4{fill:#2F2E41;}
	.st5{fill:#FFB8B8;}
</style>
<path class="st0" d="M585,228.2c-0.2,23.8-2,47.6-5.2,71.3c-0.1,0.8-0.2,1.7-0.4,2.5l-223.3-1.2c-0.7-0.8-1.3-1.7-1.9-2.5
	c-2.1-2.8-4-5.7-5.8-8.6c-8.6-14.3-12.6-31.1-8.6-42.6l0.1-0.2c0.9-2.5,2.2-4.9,4-6.9c9-10.1,27.2-8.5,43.8-0.3
	c-14.8-16.2-26.7-36.7-27.6-55c-0.9-17.8,8.5-30.6,18.6-41.4c0.3-0.4,0.7-0.7,1-1.1c0.2-0.2,0.3-0.3,0.5-0.5
	c7.9-8.3,17.1-16.4,30.4-15.4c14.6,1.1,30.8,13.3,42.2,27.6c11.4,14.3,18.9,30.4,26.6,46.2c7.7,15.8,16,32,28.2,45.5
	c-16.7-21.1-30.1-45-35-68.3s-0.6-45.7,14.2-56.7c4.5-3.2,9.7-5.3,15.2-6.1c0.6-0.1,1.3-0.2,2-0.3c13.7-1.6,30.1,3.2,44.1,14.5
	c15.4,12.5,26,31,31.3,48.6C584.6,194.9,585.2,211.9,585,228.2z"/>
<path class="st1" d="M439,301.2l-4.3,0c-1.4-0.8-2.7-1.7-4.1-2.5c-0.8-0.5-1.7-1-2.6-1.6c-14.2-8.6-28.4-16.9-42.8-24.9
	c-14.3-8-28.7-15.5-43.2-22.8c-0.8-0.3-1.2-1.2-1-2c0-0.1,0-0.1,0.1-0.1c0.2-0.4,0.7-0.5,1.3-0.2c1.8,0.9,3.6,1.8,5.3,2.7
	c14.5,7.3,29,15,43.3,23.1c14.4,8.1,28.7,16.5,42.9,25.3c0.3,0.2,0.6,0.4,0.9,0.6C436.3,299.5,437.6,300.4,439,301.2z"/>
<path class="st1" d="M494,301.5l-2.6,0c-0.6-0.8-1.2-1.7-1.8-2.5c-14-19.6-28-39.2-42-58.9c-22.9-32.1-45.8-64.2-68.7-96.4
	c-0.1-0.2-0.2-0.4-0.3-0.6c-0.2-0.7,0.3-1.1,1-1.1c0.6,0.1,1.1,0.4,1.4,0.9c12.8,18,25.7,36,38.5,54c22.8,32,45.6,63.9,68.3,95.9
	c1.4,2,2.9,4.1,4.3,6.1C492.8,299.8,493.4,300.7,494,301.5z"/>
<path class="st1" d="M552.8,286.2c-0.1,4.4-0.4,8.8-0.8,13.2c-0.1,0.8-0.1,1.7-0.2,2.5l-2.8,0c0.1-0.8,0.2-1.7,0.2-2.5
	c0.6-6.3,1-12.6,1.1-19.1c0.1-18-1.7-36.1-5.2-53.8c-3.8-19.1-9.2-37.7-16.3-55.8c-7.4-19.1-16.3-37.6-26.6-55.2
	c-0.2-0.3-0.3-0.6-0.2-1c0.1-0.8,1.2-1,2-0.3c0.2,0.1,0.3,0.3,0.4,0.5c1.3,2.2,2.5,4.4,3.8,6.6c9.9,17.8,18.5,36.3,25.5,55.4
	c6.7,18.2,11.7,36.9,15.2,55.9C551.9,250.3,553.3,268.2,552.8,286.2z"/>
<path class="st2" d="M741.7,300.1h-607c-4.8,0-8.7,3.9-8.7,8.7v411.3c0,4.8,3.9,8.7,8.7,8.7h607c2.6,0,5-1.1,6.6-3.1
	c0.1-0.1,0.1-0.2,0.2-0.2c0.5-0.6,0.9-1.3,1.3-2.1c0.4-1,0.7-2.2,0.7-3.3V308.9C750.4,304,746.5,300.1,741.7,300.1z M748,720.2
	c0,1.2-0.4,2.4-1,3.4c-0.6,0.9-1.4,1.6-2.4,2.1c-0.9,0.5-1.9,0.7-2.9,0.7h-607c-3.4,0-6.2-2.8-6.2-6.2V308.9c0-3.4,2.8-6.2,6.2-6.2
	h607c3.4,0,6.2,2.8,6.2,6.2V720.2z"/>
<rect x="127.2" y="335.1" class="st2" width="622" height="2.5"/>
<circle class="st2" cx="148.4" cy="318.8" r="7.5"/>
<circle class="st2" cx="169.9" cy="318.8" r="7.5"/>
<circle class="st2" cx="191.4" cy="318.8" r="7.5"/>
<path class="st2" d="M594.3,392.8h-312c-7.2,0-13-5.8-13-13s5.8-13,13-13h312c7.2,0,13,5.8,13,13S601.5,392.8,594.3,392.8z
	 M282.3,368.8c-6.1,0-11,4.9-11,11s4.9,11,11,11h312c6.1,0,11-4.9,11-11s-4.9-11-11-11H282.3z"/>
<path class="st3" d="M308.2,545.4h-120c-9.4,0-17-7.6-17-17v-56c0-9.4,7.6-17,17-17h120c9.4,0,17,7.6,17,17v56
	C325.2,537.8,317.6,545.4,308.2,545.4z"/>
<path class="st3" d="M498.2,545.4h-120c-9.4,0-17-7.6-17-17v-56c0-9.4,7.6-17,17-17h120c9.4,0,17,7.6,17,17v56
	C515.2,537.8,507.6,545.4,498.2,545.4z"/>
<path class="st3" d="M688.2,545.4h-120c-9.4,0-17-7.6-17-17v-56c0-9.4,7.6-17,17-17h120c9.4,0,17,7.6,17,17v56
	C705.2,537.8,697.6,545.4,688.2,545.4z"/>
<path class="st3" d="M308.2,663.4h-120c-9.4,0-17-7.6-17-17v-56c0-9.4,7.6-17,17-17h120c9.4,0,17,7.6,17,17v56
	C325.2,655.8,317.6,663.4,308.2,663.4z"/>
<path class="st3" d="M498.2,663.4h-120c-9.4,0-17-7.6-17-17v-56c0-9.4,7.6-17,17-17h120c9.4,0,17,7.6,17,17v56
	C515.2,655.8,507.6,663.4,498.2,663.4z"/>
<path class="st3" d="M688.2,663.4h-120c-9.4,0-17-7.6-17-17v-56c0-9.4,7.6-17,17-17h120c9.4,0,17,7.6,17,17v56
	C705.2,655.8,697.6,663.4,688.2,663.4z"/>
<circle class="st4" cx="823.1" cy="362.4" r="33"/>
<path class="st5" d="M740.4,534.1c-2.8-5.3-0.7-11.7,4.5-14.5c0.6-0.3,1.1-0.5,1.7-0.7l41.8-88.5l19.1,13.4l-47.1,82.7
	c1.4,5.8-2.1,11.6-7.9,13.1C747.8,540.8,742.7,538.5,740.4,534.1L740.4,534.1z"/>
<path class="st3" d="M776.3,442.1c-0.4-1.3-0.2-2.8,0.6-4l13-20.4c3-6.7,10.9-9.8,17.7-6.8c6.7,3,9.7,10.9,6.8,17.6l-6.5,23.4
	c-0.7,2.6-3.4,4.1-5.9,3.3c-0.2-0.1-0.4-0.1-0.7-0.2l-22.2-9.9C777.6,444.6,776.7,443.5,776.3,442.1z"/>
<path class="st5" d="M881.5,542.8c-5.8-1.3-9.4-7.1-8-12.9c0.1-0.6,0.3-1.2,0.6-1.8l-39.6-89.5l22.7-5.7l31.8,89.7
	c5.3,2.7,7.4,9.2,4.7,14.5C891.4,541.7,886.3,544,881.5,542.8L881.5,542.8z"/>
<polygon class="st5" points="892.3,705 880.8,709.2 859.1,666.8 876.1,660.6 "/>
<path class="st4" d="M871.3,708.9l22.2-8.1l0,0l5.1,14l0,0L862.4,728l0,0l0,0C859.6,720.3,863.6,711.7,871.3,708.9L871.3,708.9z"/>
<path class="st4" d="M860.8,678.2l-43.9-76.8c-0.9-1.5-0.8-3.4,0.1-4.9l19.8-32.9c1.4-2.3,4.3-3,6.6-1.7c1,0.6,1.7,1.5,2.1,2.5
	l37.4,103.5c0.9,2.3-0.2,4.9-2.5,6l-13.2,6.3c-0.6,0.3-1.3,0.5-2,0.5C863.3,680.6,861.7,679.7,860.8,678.2z"/>
<path class="st3" d="M785.2,485.1c-19.3-42.9,0.2-66.9,9.4-75.2c2.7-2.4,6.1-3.7,9.7-3.7h34.6c8.1,0,14.6,6.5,14.6,14.6
	c0,2.3-0.5,4.5-1.5,6.5l-23.1,46.3l-43.5,12L785.2,485.1z"/>
<path class="st3" d="M835.8,454.7c-1.3-0.6-2.2-1.7-2.6-3l-6.9-23.2c-3.1-6.7-0.2-14.7,6.5-17.8c6.7-3.1,14.6-0.3,17.7,6.4
	l13.4,20.2c1.5,2.2,0.9,5.2-1.4,6.7c-0.2,0.1-0.4,0.2-0.6,0.3l-22,10.3C838.5,455.3,837.1,455.3,835.8,454.7z"/>
<polygon class="st5" points="813.1,716.6 800.9,716.6 795.1,669.3 813.1,669.3 "/>
<path class="st4" d="M792.1,713.1h23.6l0,0V728l0,0h-38.5l0,0l0,0C777.2,719.8,783.9,713.1,792.1,713.1L792.1,713.1z"/>
<path class="st4" d="M808,698.6l-19.6-2.3c-2.6-0.3-4.5-2.7-4.2-5.3c0,0,0-0.1,0-0.1L801.6,559c0.1-0.5,0-0.9-0.1-1.4L783.9,485
	c-0.3-1.4-0.1-2.8,0.8-3.9c2.7-3.8,12.1-12.5,39.9-12.7h0c1.9,0,3.6,1.1,4.4,2.8l3.7,8.2c0.3,0.6,0.7,1.1,1.3,1.5
	c5.1,3.6,29.9,23.9,15.3,68.5c-14.3,43.8-32.6,128.9-36.1,145.5c-0.5,2.2-2.4,3.8-4.7,3.8C808.3,698.6,808.1,698.6,808,698.6z"/>
<path class="st2" d="M973.3,728.9h-230c-0.6,0-1-0.4-1-1s0.4-1,1-1h230c0.6,0,1,0.4,1,1S973.8,728.9,973.3,728.9z"/>
<path class="st4" d="M790.4,359c-0.2,1.9-4,15-5.3,16.3c-2.7,2.8-4.1,4.6-9.8,7.3c-2.8,1.3,0.4,4.1,2.9,5.9c4,2.8,9.6,4.9,13.7,5.9
	c2.8,0.7,5.7,1.9,8.6,1.9c1,0,2.1-0.1,3.1-0.4c0.5-0.8,1.6-3.9,0.9-4.6c-1-0.9-2.6-2.5-3.5-3.7c-1.4-1.7-2.7-4.5-3.8-6.4
	c-1.7-2.9-2.6-3.9-3.5-7.2c-0.5-1.8-1.3-3.3-2.3-4.8"/>
<circle class="st5" cx="820.1" cy="373.9" r="24.6"/>
<path class="st4" d="M845.9,358.4c-5.6,3.9-12.3,5.9-19.1,5.9c2.4,1.7,5.2,2.8,8.1,3.3c-9.1,1.9-18.4,2-27.5,0.2c-2-0.3-4-1-5.8-2
	c-1.8-1-3.1-2.7-3.6-4.8c-0.6-3.4,2.1-6.6,4.9-8.7c8.7-6.4,19.8-8.7,30.2-6c3.4,0.9,6.8,2.3,9,5.1s2.8,6.9,0.8,9.7L845.9,358.4z"/>
</svg>
