<?xml version="1.0" encoding="utf-8"?>
<!-- Generator: Adobe Illustrator 19.0.0, SVG Export Plug-In . SVG Version: 6.00 Build 0)  -->
<svg version="1.1" id="Capa_1" xmlns="http://www.w3.org/2000/svg" xmlns:xlink="http://www.w3.org/1999/xlink" x="0px" y="0px"
	 viewBox="-1.5 139.8 630.5 563.2" style="enable-background:new -1.5 139.8 630.5 563.2;" xml:space="preserve">
<style type="text/css">
	.st0{fill:#F2F2F2;}
	.st1{fill:#FFFFFF;}
	.st2{fill:#CCCCCC;}
	.st3{fill:#16C1AA;}
	.st4{fill:#3F3D56;}
	.st5{fill:#E6E6E6;}
	.st6{fill:#2F2E41;}
	.st7{fill:#FFB8B8;}
</style>
<path class="st0" d="M11.6,654.8c7,15.9,22.5,25.7,38.3,33.6c2.2,1.1,4.4,2.2,6.6,3.2c0,0,0,0,0,0c0.1,0,0.2,0.1,0.3,0.2
	c0.5,0.2,0.9,0.4,1.4,0.6l-0.2,0.1l-0.7,0.4c0.2-0.1,0.5-0.3,0.7-0.4c0.1,0,0.1-0.1,0.2-0.1c8-4.5,16.1-9.3,21.8-16.6
	c5.8-7.5,8.4-18.4,3.6-26.7c-0.6-1.1-1.4-2.1-2.2-3c-0.4-0.4-0.7-0.7-1.1-1.1c-7.3-6.8-18.6-6.4-25.4,0.8c-2.3,2.4-3.8,5.4-4.5,8.6
	c-2.4-9.8,4.7-19.2,11.8-26.4c7.1-7.2,15.2-15.1,15.4-25.2c0-5.6-2.4-10.8-6.6-14.5c-0.1-0.1-0.3-0.2-0.4-0.3
	c-4.9-4.4-11.3-6.8-17.9-6.8c-12.3,0.3-23.2,8.3-30.9,17.9C9.5,614.7,3.7,636.6,11.6,654.8z"/>
<path class="st1" d="M31.5,630.1c-1.8,3.9-3.1,8.1-3.8,12.4c-0.5,3.8-0.5,7.7,0.2,11.5c1.4,7.8,4.6,15.2,9.4,21.5
	c3.6,4.8,7.9,9.1,12.6,12.9c2.2,1.1,4.4,2.2,6.6,3.2c0,0,0,0,0,0c0.1,0,0.2,0.1,0.3,0.2c0.5,0.2,0.9,0.4,1.4,0.6l-0.2,0.1l-0.7,0.4
	c0.2-0.1,0.5-0.3,0.7-0.4c0.1,0,0.1-0.1,0.2-0.1c-3.2-12.4-0.2-25.6,8.1-35.4c4.1-4.8,9.3-8.5,15.1-10.9c-0.4-0.4-0.7-0.7-1.1-1.1
	c-2.2,1-4.4,2.1-6.4,3.5c-7.3,4.8-12.8,11.7-15.8,19.9c-2.7,7.4-3.2,15.4-1.5,23.1c-0.4-0.3-0.8-0.5-1.2-0.8
	c-7.3-5-13.7-11.4-18.7-18.7c-4.2-6.3-6.9-13.5-7.7-21c-0.8-8.2,1.5-16.2,5.3-23.5c4.2-7.7,9.5-14.8,15.7-21.1
	c6.2-6.5,13.2-12.2,20.8-16.9c0.4-0.2,0.5-0.7,0.3-1.1c-0.1-0.2-0.2-0.3-0.4-0.3c-0.2,0-0.4,0-0.5,0.1c-0.9,0.6-1.9,1.2-2.8,1.8
	c-7.6,5.1-14.6,11.2-20.8,18C40.5,614.6,35.4,622,31.5,630.1z"/>
<circle class="st2" cx="388.5" cy="299.9" r="8"/>
<path class="st3" d="M593.7,397.2c-14.3,0-25.8-11.6-25.8-25.8s11.6-25.8,25.8-25.8s25.8,11.6,25.8,25.8
	C619.5,385.6,607.9,397.2,593.7,397.2z M593.7,347.6c-13.1,0-23.8,10.7-23.8,23.8c0,13.1,10.7,23.8,23.8,23.8
	c13.1,0,23.8-10.7,23.8-23.8C617.5,358.2,606.8,347.6,593.7,347.6z"/>
<path id="b9831659-891b-45a6-8adc-1a9375a374c9-343" class="st3" d="M591.2,380.8c-0.6,0-1.1-0.2-1.5-0.5l0,0l-5.8-4.5
	c-1.1-0.9-1.4-2.5-0.5-3.6c0.9-1.1,2.5-1.4,3.6-0.5l3.8,2.9l8.9-11.6c0.9-1.1,2.5-1.3,3.6-0.5c0,0,0,0,0,0l0,0l-0.1,0.1l0.1-0.1
	c1.1,0.9,1.3,2.5,0.5,3.6l-10.5,13.7C592.8,380.5,592,380.8,591.2,380.8L591.2,380.8z"/>
<path class="st4" d="M590.5,300.9h-176c-0.6,0-1-0.4-1-1c0-0.6,0.4-1,1-1h176c0.6,0,1,0.4,1,1C591.5,300.4,591,300.9,590.5,300.9z"
	/>
<path class="st4" d="M590.5,319.9h-176c-0.6,0-1-0.4-1-1c0-0.6,0.4-1,1-1h176c0.6,0,1,0.4,1,1C591.5,319.4,591,319.9,590.5,319.9z"
	/>
<path class="st4" d="M590.5,338.9h-176c-0.6,0-1-0.4-1-1c0-0.6,0.4-1,1-1h176c0.6,0,1,0.4,1,1C591.5,338.4,591,338.9,590.5,338.9z"
	/>
<path class="st4" d="M550.5,357.9h-136c-0.6,0-1-0.4-1-1c0-0.6,0.4-1,1-1h136c0.6,0,1,0.4,1,1C551.5,357.4,551,357.9,550.5,357.9z"
	/>
<path class="st4" d="M549.5,376.9h-135c-0.6,0-1-0.4-1-1c0-0.6,0.4-1,1-1h135c0.6,0,1,0.4,1,1C550.5,376.4,550,376.9,549.5,376.9z"
	/>
<circle class="st2" cx="388.5" cy="156.9" r="8"/>
<path class="st3" d="M593.7,254.2c-14.3,0-25.8-11.6-25.8-25.8c0-14.3,11.6-25.8,25.8-25.8s25.8,11.6,25.8,25.8
	C619.5,242.6,607.9,254.2,593.7,254.2z M593.7,204.6c-13.1,0-23.8,10.7-23.8,23.8c0,13.1,10.7,23.8,23.8,23.8
	c13.1,0,23.8-10.7,23.8-23.8C617.5,215.2,606.8,204.6,593.7,204.6z"/>
<path id="a4eaae8d-0473-4dfb-80cb-ce1489130d65-344" class="st3" d="M591.2,237.8c-0.6,0-1.1-0.2-1.5-0.5l0,0l-5.8-4.5
	c-1.1-0.9-1.4-2.5-0.5-3.6c0.9-1.1,2.5-1.4,3.6-0.5l3.8,2.9l8.9-11.6c0.9-1.1,2.5-1.3,3.6-0.5v0l0,0l-0.1,0.1l0.1-0.1
	c1.1,0.9,1.3,2.5,0.5,3.6l-10.5,13.7C592.8,237.5,592,237.8,591.2,237.8L591.2,237.8z"/>
<path class="st4" d="M590.5,157.9h-176c-0.6,0-1-0.4-1-1s0.4-1,1-1h176c0.6,0,1,0.4,1,1S591,157.9,590.5,157.9z"/>
<path class="st4" d="M590.5,176.9h-176c-0.6,0-1-0.4-1-1s0.4-1,1-1h176c0.6,0,1,0.4,1,1S591,176.9,590.5,176.9z"/>
<path class="st4" d="M590.5,195.9h-176c-0.6,0-1-0.4-1-1s0.4-1,1-1h176c0.6,0,1,0.4,1,1S591,195.9,590.5,195.9z"/>
<path class="st4" d="M550.5,214.9h-136c-0.6,0-1-0.4-1-1s0.4-1,1-1h136c0.6,0,1,0.4,1,1S551,214.9,550.5,214.9z"/>
<path class="st4" d="M549.5,233.9h-135c-0.6,0-1-0.4-1-1s0.4-1,1-1h135c0.6,0,1,0.4,1,1S550,233.9,549.5,233.9z"/>
<circle class="st2" cx="388.5" cy="441.9" r="8"/>
<path class="st5" d="M593.7,539.2c-14.3,0-25.8-11.6-25.8-25.8s11.6-25.8,25.8-25.8s25.8,11.6,25.8,25.8
	C619.5,527.6,607.9,539.2,593.7,539.2z M593.7,489.6c-13.1,0-23.8,10.7-23.8,23.8s10.7,23.8,23.8,23.8c13.1,0,23.8-10.7,23.8-23.8
	C617.5,500.2,606.8,489.6,593.7,489.6z"/>
<path id="a21ca558-fa96-4264-98a7-0764bc68c1d4-345" class="st5" d="M591.2,522.8c-0.6,0-1.1-0.2-1.5-0.5l0,0l-5.8-4.5
	c-1.1-0.9-1.4-2.5-0.5-3.6c0.9-1.1,2.5-1.4,3.6-0.5l3.8,2.9l8.9-11.6c0.9-1.1,2.5-1.3,3.6-0.5l0,0l0,0l-0.1,0.1l0.1-0.1
	c1.1,0.9,1.3,2.5,0.5,3.6l-10.5,13.7C592.8,522.5,592,522.8,591.2,522.8L591.2,522.8z"/>
<path class="st4" d="M590.5,442.9h-176c-0.6,0-1-0.4-1-1c0-0.6,0.4-1,1-1h176c0.6,0,1,0.4,1,1C591.5,442.4,591,442.9,590.5,442.9z"
	/>
<path class="st4" d="M590.5,461.9h-176c-0.6,0-1-0.4-1-1c0-0.6,0.4-1,1-1h176c0.6,0,1,0.4,1,1C591.5,461.4,591,461.9,590.5,461.9z"
	/>
<path class="st4" d="M590.5,480.9h-176c-0.6,0-1-0.4-1-1c0-0.6,0.4-1,1-1h176c0.6,0,1,0.4,1,1C591.5,480.4,591,480.9,590.5,480.9z"
	/>
<path class="st4" d="M550.5,499.9h-136c-0.6,0-1-0.4-1-1s0.4-1,1-1h136c0.6,0,1,0.4,1,1S551,499.9,550.5,499.9z"/>
<path class="st4" d="M549.5,518.9h-135c-0.6,0-1-0.4-1-1s0.4-1,1-1h135c0.6,0,1,0.4,1,1S550,518.9,549.5,518.9z"/>
<path class="st4" d="M394.3,693.9h-381c-0.6,0-1-0.4-1-1s0.4-1,1-1h381c0.6,0,1,0.4,1,1S394.8,693.9,394.3,693.9z"/>
<circle class="st3" cx="317.5" cy="515.6" r="31.2"/>
<path class="st1" d="M314.4,527.5c-0.7,0-1.4-0.2-1.9-0.6l0,0l-7.3-5.6c-1.4-1.1-1.7-3.1-0.6-4.6c1.1-1.4,3.1-1.7,4.6-0.6l4.7,3.6
	L325,505c1.1-1.4,3.1-1.7,4.6-0.6c0,0,0,0,0,0l-0.1,0.1l0.1-0.1c1.4,1.1,1.7,3.1,0.6,4.6L317,526.2
	C316.4,527,315.4,527.5,314.4,527.5z"/>
<circle class="st6" cx="224.5" cy="330.6" r="28.9"/>
<ellipse transform="matrix(-0.7071 -0.7071 0.7071 -0.7071 115.6993 665.1459)" class="st6" cx="195.6" cy="308.6" rx="9" ry="12"/>
<ellipse transform="matrix(-0.9196 -0.3928 0.3928 -0.9196 349.5359 673.6626)" class="st6" cx="243.7" cy="301.1" rx="12" ry="9"/>
<path class="st7" d="M305.1,497.6c2.8-5.3,0.7-11.7-4.5-14.5c-0.6-0.3-1.1-0.5-1.7-0.7l-41.8-88.5l-19.1,13.4l47.1,82.7
	c-1.4,5.8,2.1,11.6,7.9,13.1C297.8,504.4,302.8,502.1,305.1,497.6L305.1,497.6z"/>
<path class="st2" d="M266.7,408.7l-22.2,9.9c-2.4,1.1-5.3,0-6.4-2.4c-0.1-0.2-0.2-0.4-0.2-0.7l-6.5-23.4c-3-6.8,0.1-14.7,6.9-17.6
	c6.7-3,14.6,0.1,17.6,6.8l13,20.4c1.4,2.2,0.8,5.2-1.5,6.7C267.1,408.5,266.9,408.6,266.7,408.7L266.7,408.7z"/>
<path class="st7" d="M164.1,506.4c5.8-1.3,9.4-7.1,8-12.9c-0.1-0.6-0.3-1.2-0.6-1.8l39.6-89.5l-22.7-5.7l-31.8,89.7
	c-5.3,2.7-7.4,9.2-4.7,14.5C154.2,505.3,159.2,507.6,164.1,506.4L164.1,506.4z"/>
<polygon class="st7" points="153.3,668.6 164.8,672.8 186.5,630.3 169.5,624.2 "/>
<path class="st6" d="M183.1,691.6l-36.2-13.2l0,0l5.1-14l0,0l22.2,8.1C182,675.3,185.9,683.8,183.1,691.6L183.1,691.6L183.1,691.6z"
	/>
<path class="st6" d="M180.5,644.2c-0.7,0-1.4-0.2-2-0.5l-13.2-6.3c-2.2-1.1-3.3-3.7-2.5-6L200.1,528c0.9-2.5,3.7-3.8,6.2-2.9
	c1,0.4,1.9,1.1,2.5,2.1l19.8,32.9c0.9,1.5,0.9,3.4,0.1,4.9l-43.9,76.8C183.9,643.3,182.3,644.2,180.5,644.2z"/>
<circle class="st7" cx="225.5" cy="337.5" r="24.6"/>
<path class="st2" d="M260.2,449.1l-43.5-12l-23.1-46.3c-3.6-7.2-0.7-16,6.5-19.6c2-1,4.3-1.5,6.5-1.5h34.6c3.6,0,7.1,1.3,9.7,3.7
	c9.3,8.3,28.8,32.3,9.4,75.2L260.2,449.1z"/>
<path class="st2" d="M205.8,418.3l-22-10.3c-2.4-1.1-3.4-4-2.3-6.4c0.1-0.2,0.2-0.4,0.3-0.6l13.4-20.2c3.2-6.7,11.1-9.5,17.8-6.3
	c6.6,3.2,9.5,11.1,6.4,17.8l-6.9,23.2c-0.8,2.5-3.4,4-6,3.2C206.2,418.4,206,418.4,205.8,418.3L205.8,418.3z"/>
<polygon class="st7" points="232.4,680.2 244.7,680.2 250.5,632.9 232.4,632.9 "/>
<path class="st6" d="M268.3,691.6l-38.5,0l0,0l0-14.9l0,0l23.6,0C261.7,676.7,268.3,683.4,268.3,691.6L268.3,691.6L268.3,691.6z"/>
<path class="st6" d="M237.1,662.2c-2.3,0-4.2-1.6-4.7-3.8c-3.5-16.6-21.8-101.7-36.1-145.5c-14.5-44.6,10.2-64.9,15.3-68.5
	c0.5-0.4,1-0.9,1.3-1.5l3.7-8.2c0.8-1.7,2.5-2.8,4.4-2.8h0c27.8,0.2,37.2,8.9,39.9,12.7c0.8,1.1,1.1,2.6,0.8,3.9L244,521.2
	c-0.1,0.5-0.1,0.9-0.1,1.4l17.5,131.9c0.4,2.6-1.5,5.1-4.1,5.4c0,0-0.1,0-0.1,0l-19.6,2.3C237.4,662.2,237.2,662.2,237.1,662.2z"/>
<path class="st6" d="M199.7,322c5.6,3.9,12.3,5.9,19.1,5.9c-2.4,1.7-5.2,2.8-8.1,3.3c9.1,1.9,18.4,2,27.5,0.2c2-0.3,4-1,5.8-2
	c1.8-1,3.1-2.7,3.6-4.8c0.6-3.4-2.1-6.6-4.9-8.7c-8.7-6.4-19.8-8.7-30.2-6c-3.4,0.9-6.8,2.3-9,5.1s-2.8,6.9-0.8,9.7L199.7,322z"/>
</svg>
