<?xml version="1.0" encoding="utf-8"?>
<!-- Generator: Adobe Illustrator 19.0.0, SVG Export Plug-In . SVG Version: 6.00 Build 0)  -->
<svg version="1.1" id="Capa_1" xmlns="http://www.w3.org/2000/svg" xmlns:xlink="http://www.w3.org/1999/xlink" x="0px" y="0px"
	 viewBox="422 385.7 1440 70.2" style="enable-background:new 422 385.7 1440 70.2;" xml:space="preserve">
<style type="text/css">
	.st0{fill:#F6F7FB;}
	.st1{fill:#075A4F;}
</style>
<g>
	<path class="st0" d="M422,385.7v6.2l80,10.7c80,10.3,240,32.3,400,26.6c160-5.3,320-37.3,480-42.6c160-5.7,320,16.3,400,26.6
		l80,10.7v-38.2H422z"/>
	<path class="st1" d="M1382,386.6c-160,5.3-320,37.3-480,42.6c-160,5.7-320-16.3-400-26.6l-80-10.7v64h80h400h480h400h80v-32
		l-80-10.7C1702,402.9,1542,380.9,1382,386.6z"/>
</g>
</svg>
